<svg width="100" height="60" viewBox="0 0 100 60" fill="none" xmlns="http://www.w3.org/2000/svg">
<path d="M1.1994 26.949C0.419791 27.7286 -1.11197e-06 28.7781 -1.15137e-06 29.7976C-1.19076e-06 30.8171 0.3898 31.8666 1.1994 32.6462L26.9265 58.3733C28.5157 59.9625 31.0645 59.9625 32.6537 58.3733C34.2429 56.7841 34.2429 54.2354 32.6537 52.6462L13.8231 33.8456L95.952 33.8456C98.2009 33.8456 100 32.0465 100 29.7976C100 27.5487 98.2009 25.7496 95.952 25.7496L13.8231 25.7496L32.6537 6.91904C34.2429 5.32983 34.2429 2.78111 32.6537 1.1919C31.0645 -0.397305 28.5157 -0.397305 26.9265 1.1919L1.1994 26.949Z" fill="#44CEDB"/>
</svg>
