<svg width="1920" height="1080" viewBox="0 0 1920 1080" fill="none" xmlns="http://www.w3.org/2000/svg">
<g clip-path="url(#clip0)">
<path d="M1889.92 345.17C1796.65 281.296 1973.65 315.231 1942.6 297.862C1929.1 280.268 1872.5 271.164 1834.79 233.638C1767.62 166.791 1893.25 224.689 1876.34 205.388C1849.74 175.029 1784.13 196.722 1747.46 127.723C1742.99 100.427 1829.21 152.063 1809.48 126.076C1775.13 97.31 1686.91 58.9886 1693.11 30.7242C1699.31 2.45979 1755.99 48.0263 1810.84 110.979C1837.31 131.53 1762.4 26.4074 1791.12 36.9151C1851.5 59.0084 1871.94 143.435 1902.51 172.688C1924.99 194.198 1904.52 109.182 1941.63 141.582C1973.56 169.47 1962.51 234.624 1980.38 250.984C2008.63 276.839 1970.98 151.895 1997.27 167.446C2074.12 212.902 2060.79 293.408 2074.06 336.341C2089.06 384.838 2098.2 426.192 2086.51 427.4C2060.83 447.823 2094.8 412.395 2012.95 384.943C1989.44 385.327 1928.97 371.917 1889.92 345.17Z" fill="url(#paint0_linear)"/>
<mask id="mask0" mask-type="alpha" maskUnits="userSpaceOnUse" x="1691" y="21" width="400" height="410">
<path d="M1882.04 340.059C1811.87 283.904 1972.77 314.521 1941.71 297.151C1928.21 279.558 1850.57 253.537 1831.41 231.316C1773.94 164.642 1903.59 227.726 1886.68 208.424C1860.08 178.066 1783.24 196.012 1746.58 127.013C1742.11 99.717 1828.33 151.353 1808.6 125.366C1774.24 96.6 1686.02 58.2785 1692.22 30.0141C1698.42 1.74971 1755.1 47.3162 1809.95 110.269C1836.42 130.82 1761.52 25.6973 1790.23 36.205C1850.62 58.2982 1871.05 142.725 1901.63 171.977C1924.11 193.488 1903.64 108.472 1940.74 140.872C1972.68 168.76 1961.63 233.914 1979.5 250.274C2007.74 276.129 1970.09 151.185 1996.38 166.736C2073.23 212.192 2059.9 292.698 2073.18 335.631C2088.17 384.128 2097.31 425.481 2085.63 426.69C2054.82 441.239 2093.92 411.685 2012.06 384.233C1984.48 382.553 1922.89 372.761 1882.04 340.059Z" fill="url(#paint1_linear)"/>
</mask>
<g mask="url(#mask0)">
<path d="M1667.68 8.28419L1778.12 -129.708L2192.86 202.234L2106.48 445.483C2106.48 445.483 1993.51 292.396 1909.94 207.981C1821.88 119.03 1667.68 8.28419 1667.68 8.28419Z" fill="url(#paint2_linear)" fill-opacity="0.5"/>
</g>
<path d="M1633 960C1597.8 960 1464.4 953 1256.5 953C1048.6 953 928.8 953 878 953C910 931 1048.6 915 1256.5 915C1464.4 915 1608 939 1633 960Z" fill="url(#paint3_linear)" fill-opacity="0.04"/>
<path d="M1263 931C1263 934.9 1201 935 1124.5 935C1048 935 984 938.9 984 935C984 931.1 1048 924 1124.5 924C1201 924 1263 927.1 1263 931Z" fill="#E9E9ED" fill-opacity="0.6"/>
<path d="M1546.9 941.2C1546.8 945.1 1494.4 942.3 1429.8 941.3C1365.2 940.2 1312.9 941.2 1313 937.4C1313.1 933.5 1365.5 931.3 1430.1 932.3C1494.7 933.3 1547 937.3 1546.9 941.2Z" fill="#E9E9ED" fill-opacity="0.6"/>
<path d="M1136.2 557.2L1055.9 532.5C1055.9 532.5 1050.4 551.6 1049.9 566.7C1048.1 619.5 976 667 976 667C976 667 1016.3 711.1 1104.6 730.5C1181.8 747.5 1214.8 702.6 1214.8 702.6C1214.8 702.6 1153.1 699.3 1146.6 656C1139.8 611.4 1136.2 557.2 1136.2 557.2Z" fill="#E41746"/>
<path d="M1021.6 813.1C1021.6 813.1 1004.4 830.2 994.9 850.8C987.6 866.6 985.3 903.7 982.7 911.7C981.7 921.6 969.8 905.6 967.2 899.2C964.5 892.8 965.5 885.4 964.1 878.5C962.6 870.9 960.6 860.3 962 856.3C964.8 848.6 971.4 848.6 974.4 842.7C979.5 832.9 994.2 796.6 994.2 796.6L1021.6 813.1Z" fill="#F7D5D6"/>
<path d="M1076.5 560.1L1148.4 592.4C1148.4 592.4 1129.4 648.2 1113.5 683.7C1098.6 716.8 1021.4 813.7 1021.4 813.7L993.6 796.5C993.6 796.5 1046.7 699.2 1054.4 687.2C1069 664.2 1076.5 560.1 1076.5 560.1Z" fill="#F7D5D6"/>
<path d="M1024.6 366.2C976.299 352.8 1021.7 267.7 1063.9 281.4C1076.6 285.5 1079.3 292.2 1082 298.7C1083.3 301.7 1084.5 304.7 1086.7 307.3L1086.8 307.4C1089.4 309.7 1092.3 311.9 1095.3 314.2C1107.5 323.3 1120.9 333.3 1114.3 357.3C1109 376.8 1032 393.8 1032 393.8C1032 393.8 1027.8 380.7 1024.6 366.2Z" fill="url(#paint4_linear)"/>
<path d="M1063.6 292.6C1069.3 292.3 1079.2 293.2 1087.1 308.4C1095.5 320 1097.9 328.1 1095.8 342.7C1095.3 345.8 1093.8 349.9 1091.6 352.8C1091.8 356.4 1093.1 364.2 1099 368.3C1107 373.8 1073.6 379.9 1073.6 379.9C1072.5 372.2 1071.3 362.3 1066.9 359C1063.8 357.9 1061.8 357.1 1059 355.7C1051.1 351.8 1046.3 342.3 1041.3 335.2C1038.6 329.8 1035.5 325.1 1036.4 317.5C1038 303.4 1049.2 295.5 1063.6 292.6Z" fill="#F7D5D6"/>
<path d="M1121.3 388.1C1121.3 374.5 1112.8 368.3 1100.1 368.3C1085.7 368.3 1054.3 375.7 1055 388.1C1055 399.3 1079.7 418.5 1093.8 418.5C1108.2 418.5 1121.3 401.7 1121.3 388.1Z" fill="#F7D5D6"/>
<path d="M1082.9 324.8C1082.1 324.8 1076.7 324.5 1073.5 322.1C1069.8 319.4 1068.9 318.9 1074.2 322.8C1077.1 324.9 1082.1 325.6 1082.1 325.6C1082.1 325.6 1082.2 326.6 1082.1 327.3C1081.9 327.9 1081.2 329 1081.2 329L1079.5 331.5C1079.5 331.5 1082.2 329.9 1082.8 328.2C1083.3 326.9 1083.7 324.9 1082.9 324.8Z" fill="#F5BABB"/>
<path d="M1064.7 354.2C1064.7 354.2 1074.2 357.7 1083 357.7C1083 357.7 1074.2 360 1067.5 358.7C1067.1 358.8 1066.6 356.1 1064.7 354.2Z" fill="#F5BABB"/>
<path d="M1047.9 329.5C1047.2 329 1048 325.4 1051.3 321.6C1055.3 318.2 1060.5 317.3 1061.2 317.7C1062 318.7 1057.8 319.9 1054.5 322.7C1051.9 326.5 1049.3 329.9 1047.9 329.5Z" fill="#AD7200"/>
<path d="M1084.8 304.8C1084.8 304 1082.4 303.5 1078.2 304.7C1074.1 306.7 1071.2 310.5 1071.2 311.3C1071.5 312.3 1074.3 309.3 1077.7 307.6C1082 306 1084.5 306.1 1084.8 304.8Z" fill="#AD7200"/>
<path d="M1084.2 334.8C1084.2 334.8 1081.1 336.5 1080.2 337.5C1079.3 338.6 1077.8 339.7 1076.2 341C1078.6 340.3 1080.3 339.6 1084.1 337C1087.7 334.5 1088.9 333.8 1090.7 331.5C1089.5 332 1088.1 332.6 1087 333C1085.7 333.5 1084.2 334.8 1084.2 334.8Z" fill="#EC5462"/>
<path d="M1063.2 330.2C1060.7 333.1 1052.6 330.3 1052.6 330.3C1052.6 330.3 1061.2 331.3 1063.5 328.6C1063.8 328.3 1064 327.9 1064.2 327.4C1064.4 324.9 1063.5 322.1 1063.5 322.1C1063.5 322.1 1064.9 325.1 1064.2 327.4C1064.1 328.6 1063.8 329.5 1063.2 330.2Z" fill="#5A3B00"/>
<path d="M1052.6 330.3V330.2C1052.5 330.2 1052.4 330.2 1052.4 330.3C1052.4 330.4 1052.4 330.4 1052.5 330.5L1052.6 330.3ZM1063.2 330.2L1063.1 330.1L1063.2 330.2ZM1063.5 322.3L1063.6 322.2C1063.6 322.1 1063.5 322.1 1063.4 322.1C1063.3 322.1 1063.3 322.2 1063.3 322.3H1063.5ZM1063.5 328.7L1063.6 328.8L1063.5 328.7ZM1052.6 330.3C1052.6 330.4 1052.6 330.4 1052.6 330.4C1052.6 330.4 1052.6 330.4 1052.7 330.4C1052.8 330.4 1052.9 330.4 1053 330.5C1053.2 330.6 1053.6 330.7 1054 330.8C1054.8 331 1055.9 331.3 1057.1 331.4C1058.3 331.6 1059.5 331.6 1060.7 331.5C1061.8 331.4 1062.9 331 1063.5 330.2L1063.3 330C1062.7 330.7 1061.8 331 1060.7 331.2C1059.6 331.3 1058.4 331.3 1057.2 331.1C1056 330.9 1055 330.7 1054.2 330.5C1053.8 330.4 1053.5 330.3 1053.3 330.2C1053.2 330.2 1053.1 330.1 1053 330.1H1052.9C1052.7 330.2 1052.7 330.2 1052.6 330.3ZM1063.3 330.3C1063.9 329.6 1064.2 328.5 1064.3 327.5H1064C1063.9 328.5 1063.6 329.4 1063 330.1L1063.3 330.3ZM1064.3 327.5C1064.4 326.2 1064.2 324.9 1064 323.9C1063.9 323.4 1063.8 323 1063.7 322.7C1063.7 322.5 1063.6 322.4 1063.6 322.3V322.2C1063.6 322.2 1063.6 322.2 1063.5 322.2C1063.4 322.2 1063.4 322.2 1063.4 322.2V322.3C1063.4 322.4 1063.5 322.5 1063.5 322.6C1063.6 322.9 1063.7 323.3 1063.8 323.8C1064 324.8 1064.2 326.1 1064.1 327.3L1064.3 327.5ZM1063.5 322.3C1063.4 322.4 1063.4 322.4 1063.4 322.4V322.5C1063.4 322.6 1063.5 322.7 1063.5 322.9C1063.6 323.2 1063.8 323.7 1063.9 324.2C1064.2 325.2 1064.3 326.5 1064 327.6L1064.3 327.7C1064.7 326.5 1064.5 325.2 1064.2 324.1C1064.1 323.6 1063.9 323.1 1063.8 322.8C1063.7 322.6 1063.7 322.5 1063.7 322.4V322.3C1063.7 322.3 1063.6 322.2 1063.5 322.3ZM1064 327.5C1063.9 327.9 1063.7 328.3 1063.4 328.6L1063.6 328.8C1063.9 328.4 1064.1 328 1064.3 327.6L1064 327.5ZM1063.4 328.6C1062.8 329.2 1061.9 329.6 1060.8 329.9C1059.7 330.2 1058.4 330.3 1057.2 330.3C1056 330.3 1054.8 330.3 1054 330.3C1053.6 330.3 1053.2 330.2 1053 330.2C1052.9 330.2 1052.8 330.2 1052.7 330.2H1052.6C1052.6 330.2 1052.6 330.2 1052.6 330.3C1052.6 330.4 1052.6 330.4 1052.6 330.4C1052.6 330.4 1052.6 330.4 1052.7 330.4C1052.8 330.4 1052.9 330.4 1053 330.4C1053.2 330.4 1053.6 330.4 1054 330.5C1054.8 330.6 1056 330.6 1057.2 330.5C1058.4 330.5 1059.7 330.3 1060.9 330.1C1062 329.8 1063.1 329.4 1063.7 328.7L1063.4 328.6Z" fill="#5A3B00"/>
<path d="M1084.4 315.9C1087 313.6 1084.7 309 1084.7 309C1084.7 309 1085.7 313.9 1083.4 316.1C1083.1 316.4 1082.7 316.6 1082.3 316.7C1079.7 316.9 1076.4 315.7 1076.4 315.7C1076.4 315.7 1080 317.3 1082.3 316.7C1083.1 316.6 1083.9 316.4 1084.4 315.9Z" fill="#5A3B00"/>
<path d="M1084.7 309H1084.5C1084.5 308.9 1084.5 308.9 1084.6 308.8C1084.7 308.8 1084.7 308.8 1084.8 308.9L1084.7 309ZM1084.4 315.9L1084.3 315.8L1084.4 315.9ZM1076.4 315.7L1076.3 315.8C1076.2 315.8 1076.2 315.7 1076.2 315.6C1076.2 315.5 1076.3 315.5 1076.4 315.5V315.7ZM1083.4 316.1L1083.3 316L1083.4 316.1ZM1084.7 309C1084.8 308.9 1084.8 308.9 1084.8 308.9C1084.8 308.9 1084.8 309 1084.9 309.1C1085 309.2 1085 309.4 1085.1 309.7C1085.3 310.2 1085.5 310.8 1085.6 311.5C1085.8 312.9 1085.8 314.7 1084.4 315.9L1084.2 315.7C1085.4 314.6 1085.5 313 1085.3 311.6C1085.2 310.9 1085 310.3 1084.8 309.8C1084.7 309.6 1084.6 309.4 1084.6 309.3C1084.6 309.2 1084.5 309.2 1084.5 309.2C1084.6 309.1 1084.6 309.1 1084.7 309ZM1084.5 316C1083.9 316.5 1083.2 316.7 1082.3 316.8V316.5C1083.1 316.4 1083.8 316.2 1084.3 315.8L1084.5 316ZM1082.3 316.8C1081 316.9 1079.5 316.7 1078.4 316.4C1077.8 316.3 1077.3 316.1 1077 316C1076.8 315.9 1076.7 315.9 1076.6 315.9C1076.5 315.9 1076.5 315.9 1076.5 315.9C1076.5 315.9 1076.5 315.9 1076.6 315.8C1076.6 315.7 1076.6 315.7 1076.6 315.7H1076.7C1076.8 315.7 1076.9 315.8 1077.1 315.8C1077.4 315.9 1077.9 316.1 1078.5 316.2C1079.7 316.5 1081.1 316.7 1082.4 316.6L1082.3 316.8ZM1076.4 315.7C1076.5 315.6 1076.5 315.6 1076.5 315.6H1076.6C1076.7 315.6 1076.9 315.7 1077 315.8C1077.4 315.9 1077.9 316.1 1078.5 316.3C1079.7 316.6 1081.1 316.9 1082.2 316.6L1082.3 316.9C1081.1 317.2 1079.6 316.9 1078.4 316.6C1077.8 316.4 1077.3 316.3 1076.9 316.1C1076.7 316 1076.6 316 1076.5 315.9C1076.4 315.9 1076.4 315.9 1076.4 315.9C1076.4 315.8 1076.4 315.8 1076.4 315.7ZM1082.3 316.5C1082.7 316.4 1083.1 316.2 1083.3 316L1083.5 316.2C1083.2 316.5 1082.8 316.7 1082.3 316.8V316.5ZM1083.3 316C1084.4 315 1084.7 313.3 1084.8 311.8C1084.8 311.1 1084.8 310.4 1084.7 309.9C1084.7 309.7 1084.6 309.5 1084.6 309.3C1084.6 309.2 1084.6 309.2 1084.6 309.1C1084.6 309.1 1084.6 309.1 1084.8 309.1C1084.9 309.1 1084.9 309.1 1084.9 309.1C1084.9 309.1 1084.9 309.2 1084.9 309.3C1084.9 309.4 1085 309.6 1085 309.9C1085.1 310.4 1085.1 311.1 1085.1 311.8C1085.1 313.3 1084.7 315.1 1083.5 316.2L1083.3 316Z" fill="#5A3B00"/>
<path d="M1211.3 828.1C1211.3 828.1 1209.9 848.8 1216.2 870.6C1221 887.4 1243.6 916.8 1246.8 924.6C1252.6 932.8 1233.1 928.4 1226.9 925.4C1220.7 922.3 1216.6 916.1 1211 911.8C1204.9 907 1196.4 900.4 1194.9 896.4C1192 888.7 1197 884.4 1195.4 878C1192.8 867.2 1180.3 830.6 1180.3 830.6L1211.3 828.1Z" fill="#F7D5D6"/>
<path d="M1152.4 578.5C1150.7 575.8 1148.8 573 1146.7 570.1C1126.4 541.9 1132.1 532.1 1136.8 524.1C1139.3 519.7 1141.6 515.8 1139.1 509.8C1136 502.4 1142.2 488.5 1142.2 488.5L1079.3 469C1078 482.4 1074 495.5 1070.2 508C1064 528.2 1058.2 547.1 1064.8 564.5C1070.6 579.9 1086.2 600.2 1107.9 609.2C1125.6 635.1 1159.7 687.9 1159.7 708.1C1159.7 723.4 1180.1 831.6 1180.1 831.6L1211.3 829.7C1211.3 829.7 1218.1 701.2 1203.4 668.1C1188.3 634.1 1159.7 576.2 1159.7 576.2L1152.4 578.5Z" fill="#F7D5D6"/>
<path d="M1229.7 256.8C1233.2 259.5 1230.4 256.3 1234.8 260.1C1246.5 255.5 1250.8 242.3 1250.8 242.3C1250.8 242.3 1262.8 230.8 1262 227.7C1261.2 224.6 1248 237.9 1248 237.9C1248 237.9 1260.4 220.2 1258.6 217.6C1256.4 214.8 1242.5 234.9 1242.5 234.9C1242.5 234.9 1256.7 211.3 1252.8 210.2C1248.8 209.1 1238.2 230.2 1238.2 230.2C1238.2 230.2 1247.4 207.3 1244 206.3C1240.6 205.3 1224.1 236.8 1224.1 236.8C1221.3 226.5 1214.5 229.4 1214.5 229.4L1222.8 254C1222.8 254 1228 255.6 1229.7 256.8Z" fill="#F7D5D6"/>
<path d="M1103 369.6C1103 369.6 1139.2 354.9 1168 331.5C1183.8 318.7 1221.8 252.8 1221.8 252.8L1236.3 259C1236.3 259 1209.1 332.5 1198.4 341.5C1189.1 353.7 1147 384.7 1130.8 397.6L1103 369.6Z" fill="#F7D5D6"/>
<path d="M1078.3 340L1076.8 341L1078.3 342.1L1079 341.1C1078.3 342.1 1078.3 342.1 1078.3 342.1C1078.3 342.1 1078.3 342.1 1078.4 342.1C1078.4 342.1 1078.5 342.2 1078.6 342.2C1078.7 342.3 1078.9 342.4 1079.2 342.5C1079.7 342.7 1080.4 342.9 1081.2 343.1C1083 343.3 1085.4 343 1088.2 341.2C1090.5 339.7 1091.4 337.8 1091.6 336.2C1091.7 335.4 1091.6 334.8 1091.6 334.3C1091.6 334.1 1091.5 333.9 1091.5 333.7C1091.5 333.6 1091.5 333.6 1091.4 333.5C1091.4 333.5 1091.4 333.5 1091.4 333.4C1091.4 333.4 1091.4 333.4 1090.2 333.8L1091.4 333.4L1090.9 331.9L1089.6 332.8L1078.3 340Z" fill="white" stroke="#EC5462" stroke-width="2.5"/>
<path d="M1500.4 826C1500.4 826 1513.8 854.6 1508.3 879.7C1504.1 899 1487.8 934.1 1484.7 943.2C1478.8 952.9 1499.8 945.8 1506.6 941.8C1513.4 937.8 1515.5 929.1 1521.5 923.8C1528 917.9 1533 911.9 1534.4 907.2C1537.1 898.3 1531.2 893.8 1532.4 886.4C1534.5 874 1532.4 826 1532.4 826H1500.4Z" fill="#F7D5D6"/>
<path d="M1365.4 825.9C1365.4 825.9 1367 849.4 1359.9 874C1354.4 893 1328.9 926.3 1325.2 935.2C1318.7 944.4 1340.7 939.6 1347.7 936.1C1354.7 932.6 1359.4 925.6 1365.7 920.7C1372.6 915.3 1382.2 907.8 1384 903.2C1387.3 894.5 1381.7 889.6 1383.5 882.4C1386.5 870.2 1400.6 828.8 1400.6 828.8L1365.4 825.9Z" fill="#F7D5D6"/>
<path d="M1088.34 319.943C1088.59 319.844 1088.75 319.638 1088.7 319.484C1088.64 319.329 1088.38 319.284 1088.12 319.383C1087.86 319.482 1087.7 319.688 1087.76 319.842C1087.82 319.997 1088.08 320.042 1088.34 319.943Z" fill="#4B3200" fill-opacity="0.1"/>
<path d="M1084.52 321.364C1084.78 321.265 1084.94 321.059 1084.88 320.904C1084.82 320.75 1084.57 320.705 1084.31 320.804C1084.05 320.903 1083.89 321.109 1083.95 321.263C1084.01 321.418 1084.27 321.463 1084.52 321.364Z" fill="#4B3200" fill-opacity="0.1"/>
<path d="M1092.13 321.448C1092.39 321.349 1092.55 321.143 1092.49 320.988C1092.43 320.834 1092.17 320.789 1091.91 320.888C1091.66 320.987 1091.5 321.193 1091.55 321.347C1091.61 321.502 1091.87 321.547 1092.13 321.448Z" fill="#4B3200" fill-opacity="0.1"/>
<path d="M1088.32 322.869C1088.58 322.77 1088.74 322.564 1088.68 322.409C1088.62 322.255 1088.36 322.209 1088.1 322.309C1087.85 322.408 1087.68 322.613 1087.74 322.768C1087.8 322.923 1088.06 322.968 1088.32 322.869Z" fill="#4B3200" fill-opacity="0.1"/>
<path d="M1079.44 322.165C1079.7 322.066 1079.86 321.86 1079.8 321.705C1079.74 321.551 1079.48 321.506 1079.22 321.605C1078.97 321.704 1078.81 321.91 1078.87 322.064C1078.92 322.219 1079.18 322.264 1079.44 322.165Z" fill="#4B3200" fill-opacity="0.1"/>
<path d="M1084.74 318.939C1084.99 318.84 1085.16 318.635 1085.1 318.48C1085.04 318.325 1084.78 318.28 1084.52 318.379C1084.26 318.478 1084.1 318.684 1084.16 318.839C1084.22 318.993 1084.48 319.038 1084.74 318.939Z" fill="#4B3200" fill-opacity="0.1"/>
<path d="M1083.23 323.67C1083.49 323.571 1083.65 323.365 1083.59 323.21C1083.53 323.056 1083.28 323.011 1083.02 323.11C1082.76 323.209 1082.6 323.415 1082.66 323.569C1082.72 323.724 1082.98 323.769 1083.23 323.67Z" fill="#4B3200" fill-opacity="0.1"/>
<path d="M1065.78 334.336C1066.01 334.186 1066.13 333.951 1066.04 333.812C1065.95 333.673 1065.69 333.683 1065.46 333.833C1065.22 333.984 1065.11 334.219 1065.2 334.357C1065.29 334.496 1065.55 334.487 1065.78 334.336Z" fill="#4B3200" fill-opacity="0.1"/>
<path d="M1069.09 332.171C1069.32 332.02 1069.43 331.786 1069.34 331.647C1069.25 331.508 1068.99 331.517 1068.76 331.668C1068.53 331.818 1068.42 332.053 1068.51 332.192C1068.6 332.331 1068.86 332.321 1069.09 332.171Z" fill="#4B3200" fill-opacity="0.1"/>
<path d="M1064.71 338.382C1064.94 338.232 1065.06 337.997 1064.96 337.858C1064.87 337.719 1064.61 337.729 1064.38 337.879C1064.15 338.03 1064.04 338.264 1064.13 338.403C1064.22 338.542 1064.48 338.533 1064.71 338.382Z" fill="#4B3200" fill-opacity="0.1"/>
<path d="M1055.57 336.659C1055.8 336.508 1055.91 336.274 1055.82 336.135C1055.73 335.996 1055.47 336.005 1055.24 336.156C1055.01 336.306 1054.9 336.541 1054.99 336.68C1055.08 336.819 1055.34 336.809 1055.57 336.659Z" fill="#4B3200" fill-opacity="0.1"/>
<path d="M1068.1 336.168C1068.33 336.017 1068.45 335.782 1068.36 335.643C1068.27 335.505 1068 335.514 1067.77 335.664C1067.54 335.815 1067.43 336.05 1067.52 336.189C1067.61 336.327 1067.87 336.318 1068.1 336.168Z" fill="#4B3200" fill-opacity="0.1"/>
<path d="M1072.68 328.48C1072.91 328.33 1073.02 328.095 1072.93 327.956C1072.84 327.817 1072.58 327.827 1072.35 327.977C1072.12 328.128 1072 328.362 1072.09 328.501C1072.18 328.64 1072.44 328.631 1072.68 328.48Z" fill="#4B3200" fill-opacity="0.1"/>
<path d="M1067.09 330.834C1067.32 330.683 1067.44 330.449 1067.35 330.31C1067.26 330.171 1067 330.18 1066.76 330.331C1066.53 330.481 1066.42 330.716 1066.51 330.855C1066.6 330.994 1066.86 330.985 1067.09 330.834Z" fill="#4B3200" fill-opacity="0.1"/>
<path d="M1071.69 332.472C1071.92 332.321 1072.03 332.087 1071.94 331.948C1071.85 331.809 1071.59 331.818 1071.36 331.969C1071.13 332.119 1071.01 332.354 1071.1 332.493C1071.19 332.632 1071.45 332.622 1071.69 332.472Z" fill="#4B3200" fill-opacity="0.1"/>
<path d="M1133.3 396.9C1135.2 399.8 1136.9 402.8 1138 405.6C1144.8 422.5 1143.6 453.5 1142.8 471.8C1142.6 476.1 1142.5 479.7 1142.5 482.3C1142.5 488 1143.2 494.2 1143.6 498C1144.9 505 1136 507.8 1112.8 507.8C1110.2 507.8 1106.9 507.9 1103.1 508.1C1086.4 508.8 1061.8 509.8 1062.9 500.5C1065.8 476.6 1061.4 443 1051.9 420.6L1046.1 405.7C1035.8 400.7 1048.5 396.5 1051.9 395.9C1051.9 395.9 1062.9 403.1 1071.6 405.7C1088.5 410.8 1104.7 409.2 1117.6 398.4C1130.5 387.5 1101.2 368.4 1101.2 368.4L1104.4 368C1105.5 367.7 1116.8 364.6 1136.1 352.3C1136.3 352.2 1136.4 352.1 1136.6 352C1140.1 349.7 1142.1 348.5 1145.4 348.2C1158 346.9 1169.1 365.9 1166.4 369.4C1160.4 377.4 1154.6 381.4 1146.9 386.8C1143.2 389.5 1138.7 392.6 1133.3 396.9Z" fill="url(#paint5_linear)"/>
<path d="M1062.8 500.8L1074 504C1074 504 1071 476.5 1068.4 466.7C1064.4 451.5 1061 453 1061 453C1061.6 456.5 1063 468.8 1063.5 479.7C1063.9 491 1062.8 500.8 1062.8 500.8Z" fill="url(#paint6_linear)"/>
<path d="M1143.9 498.3C1143.9 498.3 1117.7 507.5 1100.3 507.4C1085.5 507.2 1063 500.1 1063 500.1C1063 500.1 1052.2 542.9 1048 552.7C1027.8 599.8 944.301 611.1 971.401 668C981.401 689 1100.3 722.8 1100.3 722.8C1100.3 722.8 1173.6 736.7 1215.4 717.2C1222.4 713.9 1202.4 657.8 1171.5 598.7C1155.4 568 1143.9 498.3 1143.9 498.3Z" fill="url(#paint7_radial)"/>
<path d="M1073.6 644.7C1072.2 644.4 1071.2 643.4 1071.4 642.4L1072.9 635.6C1073.1 634.7 1074.4 634.1 1075.8 634.5C1077.2 634.8 1078.2 635.8 1078 636.8L1076.5 643.6C1076.3 644.5 1075 645 1073.6 644.7Z" fill="#425479"/>
<path d="M1041.1 637.6C1039.7 637.3 1038.7 636.3 1038.9 635.3L1040.4 628.5C1040.6 627.6 1041.9 627 1043.3 627.4C1044.7 627.8 1045.7 628.7 1045.5 629.7L1044 636.5C1043.8 637.4 1042.5 637.9 1041.1 637.6Z" fill="#425479"/>
<path d="M1097.9 693.1L998.8 671.2C997.9 671 996.9 671.6 996.7 672.5L990.3 701.6C989.3 706.3 992.2 711 997 712L1082.4 730.8C1087.1 731.8 1091.8 728.8 1092.8 724.1L1099.2 695C1099.4 694.2 1098.9 693.3 1097.9 693.1Z" fill="#425479"/>
<path d="M1103.9 649.6L1011.6 629.3C1006.9 628.3 1002.2 631.3 1001.2 636L994.6 665.7C993.8 669.1 995.2 672.7 998.1 674.8C1010.8 683.9 1025 690.5 1040.2 694.5L1050.5 696.8C1050.5 696.8 1050.5 696.8 1050.6 696.8C1066 699.5 1081.6 699.5 1097 696.6C1100.5 695.9 1103.2 693.3 1104 689.9L1110.5 660.2C1111.6 655.3 1108.6 650.6 1103.9 649.6Z" fill="#C6DCED"/>
<path d="M1070 681.6C1070.8 677.8 1068.4 674.1 1064.7 673.3L1037.4 667.3C1033.6 666.5 1029.9 668.9 1029.1 672.6L1025.4 689.6C1030.3 691.5 1035.3 693.2 1040.4 694.6L1050.7 696.9C1050.7 696.9 1050.7 696.9 1050.8 696.9C1056 697.8 1061.2 698.4 1066.5 698.7L1070 681.6Z" fill="#334771"/>
<path d="M1045.9 701.3L1042.5 700.5C1040.6 700.1 1039.4 698.2 1039.8 696.3L1041.3 689.5C1041.7 687.6 1043.6 686.4 1045.5 686.8L1048.9 687.6C1050.8 688 1052 689.9 1051.6 691.8L1050.1 698.6C1049.7 700.6 1047.8 701.8 1045.9 701.3Z" fill="#08AFBE"/>
<path d="M1077.9 637.5C1077.6 637.4 1077.2 637.3 1076.9 637.1C1072.1 634.4 1066.1 632.2 1059.6 630.8C1053.1 629.4 1046.7 628.8 1041.3 629.2C1039.4 629.3 1037.7 627.9 1037.5 626C1037.4 624.1 1038.8 622.4 1040.7 622.2C1046.8 621.7 1053.9 622.3 1061.1 623.9C1068.3 625.5 1074.9 627.9 1080.3 630.9C1082 631.8 1082.6 634 1081.6 635.7C1080.9 637.2 1079.4 637.9 1077.9 637.5Z" fill="#334771"/>
<path d="M1050.6 688L1043.8 686.5C1042.9 686.3 1041.9 686.9 1041.7 687.8L1040.9 691.2C1040.5 693.1 1041.7 695 1043.6 695.4L1047 696.2C1048.9 696.6 1050.8 695.4 1051.2 693.5L1052 690.1C1052.1 689.2 1051.5 688.2 1050.6 688Z" fill="#44CEDB"/>
<path d="M1047.9 594.5C1043.4 594.9 1047.7 595.3 1041.7 595.4C1035.8 606.6 1039.9 619.8 1039.9 619.8C1039.9 619.8 1039.9 635.8 1042.6 637.5C1045.3 639.2 1044.9 620 1044.9 620C1044.9 620 1048.8 642 1051.9 642.8C1055.4 643.4 1050.6 619.1 1050.6 619.1C1050.6 619.1 1057.5 646.2 1061.3 644.4C1065.1 642.6 1059.1 619.9 1059.1 619.9C1059.1 619.9 1067.4 643 1070.7 641.5C1074 640 1065.5 605.6 1065.5 605.6C1074.5 611.4 1077.8 604.8 1077.8 604.8L1054.9 592C1055.1 592 1050 594.3 1047.9 594.5Z" fill="#F7D5D6"/>
<path d="M1059.7 398.2C1059.7 398.2 1073.4 406.6 1059.3 451.8C1056 468.4 1054.9 475.7 1050.4 502.8C1050.7 546.3 1058.9 602.2 1058.9 602.2L1042.2 603.6C1042.2 603.6 1020 517.3 1021.2 505.3C1024.1 474.9 1023.3 390.5 1059.7 398.2Z" fill="#F7D5D6"/>
<path d="M1060.3 399.3C1076 412.9 1058.6 457.2 1056.5 470.4C1056.5 484.4 1024 477.3 1024 470.4C1024 439.9 1032.3 392 1060.3 399.3Z" fill="url(#paint8_linear)"/>
<path d="M1072.4 364.5C1086.7 384.4 1066.5 396.3 1062 398.9C1046.6 408 1019.8 410.6 1001.4 391.3C991.5 374.3 997.3 333.4 1006.4 314.6C1016.9 292.8 1027.4 283.9 1040 283.3C1070.2 281.8 1046.4 291.6 1046.3 312.6C1046.5 330.9 1052.5 336.8 1072.4 364.5Z" fill="url(#paint9_linear)"/>
<path d="M1039.9 311.2C1041.8 315.7 1042.2 318.7 1044.7 319.8C1047.6 321 1055.6 312.4 1064.6 306.9C1078.4 298.5 1083.9 301.3 1083.8 298.1C1083.7 296.7 1082.9 295.1 1081.8 292.5C1078.1 283.7 1066.3 280.3 1055.6 284.9C1044.8 289.4 1036.2 302.4 1039.9 311.2Z" fill="url(#paint10_linear)"/>
<path d="M1457 364.4C1457 364.4 1402.3 328.8 1379.6 322.7C1368.4 311.9 1338.1 278.8 1315.5 260.6L1324 232C1324 232 1316.6 233 1313.1 243.2C1313.1 243.2 1291.4 214.4 1287.4 215.4C1283.5 216.7 1294.7 233.5 1294.7 233.5C1294.7 233.5 1275.9 216.2 1271.5 217.5C1266.8 218.9 1287.3 240.1 1287.3 240.1C1287.3 240.1 1268.3 226 1266 228.9C1263.7 231.6 1282.6 247.2 1282.6 247.2C1282.6 247.2 1263.1 236.8 1261.4 240.4C1259.7 243.8 1278.4 250.3 1278.4 250.3C1278.4 250.3 1285.8 263 1299.4 267.4C1299.4 267.4 1333.6 329.8 1359.1 346.7L1439.7 406L1457 364.4Z" fill="#F7D5D6"/>
<path d="M1447.4 411.4L1390.6 370.6C1390.6 370.6 1388 348.7 1411 335.9L1469.9 361.5L1447.4 411.4Z" fill="url(#paint11_linear)"/>
<path d="M1466 360C1466 360 1471.5 342.2 1473.9 337.5C1470.2 335.6 1469.3 333.3 1468.1 331C1461.5 318.7 1481.1 282.4 1492.8 273.4C1501.9 266.3 1497.5 266.4 1520.8 275.4C1544.1 284.3 1533.8 307.3 1526.2 320.4C1519 332.5 1522.9 337.6 1514 339.9L1508.1 368.5L1466 360Z" fill="#F7D5D6"/>
<path d="M1482.3 302.9C1484.6 299.1 1491.7 303.7 1494.3 299.3C1497.5 293.8 1498.5 292.7 1493.7 300.4C1491.2 304.4 1484.4 299.2 1482.8 304C1482.3 305.6 1482.6 308.1 1484.9 310L1489.4 311C1489.4 311 1486 311.5 1484 310.2C1482.5 309.2 1480 306.7 1482.3 302.9Z" fill="#F5BABB"/>
<path d="M1524.2 324C1524.1 315.1 1532.3 307 1530.3 298.6C1526 299.3 1522 294.4 1523.4 289.4C1523.9 287.4 1525 285.5 1525.5 283.7C1526 281.7 1525.9 279.4 1524.4 278.6C1523.8 278.1 1522.9 278.3 1522.1 278.4C1515.5 279 1506.9 277.5 1500.6 276.3C1494.5 275.1 1486.3 271.6 1483.8 264.4C1482.4 256.3 1483.6 254.9 1487.8 250.3C1490.4 247.6 1497.2 241.7 1505.6 243.7C1512.4 246.1 1512.8 249.8 1513.9 254.9C1516.6 251.1 1521.6 250.8 1525.1 253C1528.5 254.9 1530.6 258.8 1532.3 262.7C1534.3 266.3 1536.1 270.2 1539.5 272.4C1542.6 274.4 1545.4 276.3 1546.1 280.2C1547.2 286.7 1541.3 287.7 1539 292.3C1539.6 291.1 1543.3 293.8 1541.8 300.1C1540.3 306.4 1537.6 305.7 1535.6 308.8C1531.5 314.6 1530.2 319.6 1524.2 324Z" fill="url(#paint12_linear)"/>
<path d="M1507.5 340.8C1507.5 340.8 1490.3 342.1 1480.7 338C1480.7 338 1489.8 345.3 1505.5 346L1507.5 340.8Z" fill="#F5BABB"/>
<path d="M1521.4 300C1522.3 299.2 1522.7 295.7 1518 291.6C1513.3 287.6 1509 289.3 1508.9 290.7C1508.5 292.1 1510.4 293.5 1514.3 297C1518.5 300.5 1520.6 301.2 1521.4 300Z" fill="#04172D"/>
<path d="M1495.5 286.7C1496.1 285.8 1495.3 283.1 1489.8 281.8C1484.3 280.2 1481.1 282.6 1481.2 283.7C1481.3 284.8 1483.3 285.5 1488.1 286.9C1492.8 287.7 1495.2 287.6 1495.5 286.7Z" fill="#04172D"/>
<path d="M1530.4 314C1530.4 314 1535.2 311.8 1536 319.5C1527.7 330.6 1521.1 323.1 1521.1 323.1L1530.4 314Z" fill="#F5BABB"/>
<path d="M1503.4 305.8C1506.2 307.9 1513.5 305.1 1513.5 305.1C1513.5 305.1 1506.2 307.6 1503.7 305.8C1501.6 304.3 1502.5 300.2 1502.5 300.2C1502.5 300.2 1501.1 304.1 1503.4 305.8Z" fill="#04172D"/>
<path d="M1513.5 305.1L1513.4 305C1513.5 305 1513.6 305 1513.6 305.1C1513.6 305.2 1513.6 305.3 1513.5 305.3V305.1ZM1503.4 305.8L1503.5 305.7L1503.4 305.8ZM1502.5 300.2H1502.4C1502.4 300.1 1502.5 300.1 1502.6 300.1C1502.7 300.1 1502.7 300.2 1502.7 300.3L1502.5 300.2ZM1503.7 305.8L1503.6 305.9L1503.7 305.8ZM1513.5 305.1C1513.5 305.2 1513.5 305.2 1513.5 305.2C1513.5 305.2 1513.5 305.2 1513.4 305.2C1513.3 305.2 1513.3 305.2 1513.2 305.3C1513 305.4 1512.7 305.5 1512.3 305.6C1511.6 305.8 1510.5 306.1 1509.5 306.3C1508.4 306.5 1507.2 306.7 1506.1 306.6C1505 306.6 1504 306.4 1503.3 305.8L1503.5 305.6C1504.2 306.1 1505.1 306.3 1506.2 306.3C1507.3 306.3 1508.4 306.2 1509.5 306C1510.6 305.8 1511.6 305.5 1512.3 305.3C1512.7 305.2 1513 305.1 1513.2 305C1513.3 305 1513.4 304.9 1513.4 304.9C1513.4 304.9 1513.4 304.9 1513.5 304.9C1513.5 305 1513.5 305 1513.5 305.1ZM1503.3 305.9C1502.1 305 1501.9 303.5 1501.9 302.3C1501.9 301.7 1502 301.1 1502.1 300.7C1502.1 300.5 1502.2 300.3 1502.2 300.2C1502.2 300.1 1502.2 300.1 1502.2 300.1C1502.2 300.1 1502.2 300.1 1502.3 300.1C1502.4 300.1 1502.4 300.1 1502.4 300.1V300.2C1502.4 300.3 1502.3 300.5 1502.3 300.7C1502.2 301.1 1502.1 301.6 1502.1 302.2C1502.1 303.4 1502.3 304.7 1503.4 305.5L1503.3 305.9ZM1502.5 300.2C1502.7 300.2 1502.7 300.2 1502.7 300.2V300.3C1502.7 300.4 1502.7 300.6 1502.6 300.8C1502.5 301.2 1502.5 301.8 1502.5 302.4C1502.5 303.6 1502.8 304.9 1503.8 305.7L1503.6 305.9C1502.5 305.1 1502.2 303.6 1502.2 302.4C1502.2 301.8 1502.2 301.2 1502.3 300.8C1502.3 300.6 1502.4 300.4 1502.4 300.3C1502.4 300.2 1502.4 300.2 1502.4 300.2C1502.3 300.1 1502.3 300.1 1502.5 300.2ZM1503.8 305.7C1504.4 306.1 1505.3 306.3 1506.3 306.3C1507.3 306.3 1508.5 306.2 1509.5 306C1510.6 305.8 1511.5 305.6 1512.3 305.3C1512.7 305.2 1512.9 305.1 1513.2 305C1513.3 305 1513.4 304.9 1513.4 304.9C1513.4 304.9 1513.4 304.9 1513.5 304.9C1513.5 304.9 1513.5 304.9 1513.6 305C1513.6 305.1 1513.6 305.1 1513.6 305.1C1513.6 305.1 1513.6 305.1 1513.5 305.1C1513.5 305.1 1513.4 305.1 1513.3 305.2C1513.1 305.3 1512.8 305.4 1512.4 305.5C1511.7 305.7 1510.7 306 1509.6 306.2C1508.5 306.4 1507.4 306.5 1506.3 306.5C1505.2 306.5 1504.3 306.3 1503.6 305.8L1503.8 305.7Z" fill="#04172D"/>
<path d="M1485.3 296.3C1482.3 295.4 1482.2 291.3 1482.2 291.3C1482.2 291.3 1482.7 295.3 1485.3 296.3C1486.7 296.7 1488.5 295.9 1489.8 295.1C1490.9 294.4 1491.6 293.8 1491.6 293.8C1491.6 293.8 1490.8 294.5 1489.8 295.1C1488.5 295.9 1486.7 296.8 1485.5 296.4C1485.4 296.3 1485.3 296.3 1485.3 296.3Z" fill="#04172D"/>
<path d="M1482.2 291.3H1482.4C1482.4 291.2 1482.3 291.2 1482.2 291.2C1482.1 291.2 1482.1 291.3 1482.1 291.4L1482.2 291.3ZM1485.3 296.3L1485.2 296.4L1485.3 296.3ZM1491.6 293.8L1491.7 293.9C1491.8 293.8 1491.8 293.8 1491.7 293.7C1491.6 293.6 1491.6 293.6 1491.5 293.7L1491.6 293.8ZM1485.4 296.3V296.2V296.3ZM1482.2 291.3C1482 291.3 1482 291.3 1482 291.3V291.4C1482 291.5 1482 291.7 1482 291.9C1482.1 292.3 1482.2 292.9 1482.4 293.4C1482.8 294.6 1483.6 295.9 1485.2 296.4L1485.3 296.1C1483.9 295.6 1483.1 294.4 1482.7 293.3C1482.5 292.7 1482.4 292.2 1482.4 291.8C1482.4 291.6 1482.4 291.4 1482.3 291.3C1482.3 291.2 1482.3 291.2 1482.3 291.2C1482.3 291.3 1482.3 291.3 1482.2 291.3ZM1485.2 296.4L1485.3 296.1L1485.2 296.4ZM1485.2 296.4C1485.9 296.6 1486.8 296.5 1487.6 296.3C1488.4 296 1489.2 295.6 1489.9 295.2L1489.7 294.9C1489 295.3 1488.3 295.7 1487.5 296C1486.7 296.2 1486 296.3 1485.3 296.1L1485.2 296.4ZM1489.8 295.2C1490.3 294.9 1490.8 294.5 1491.1 294.3C1491.3 294.2 1491.4 294.1 1491.5 294L1491.6 293.9C1491.6 293.9 1491.6 293.9 1491.5 293.8C1491.4 293.7 1491.4 293.7 1491.4 293.7C1491.4 293.7 1491.3 293.7 1491.3 293.8C1491.2 293.9 1491.1 294 1490.9 294.1C1490.6 294.3 1490.1 294.7 1489.6 295L1489.8 295.2ZM1491.6 293.8C1491.5 293.7 1491.5 293.7 1491.5 293.7C1491.5 293.7 1491.4 293.7 1491.4 293.8C1491.3 293.9 1491.2 294 1491 294.1C1490.7 294.3 1490.2 294.7 1489.7 295L1489.9 295.3C1490.4 295 1490.9 294.6 1491.2 294.4C1491.4 294.3 1491.5 294.2 1491.6 294.1L1491.7 294C1491.7 293.9 1491.7 293.9 1491.6 293.8ZM1489.7 294.9C1489 295.3 1488.3 295.7 1487.5 296C1486.7 296.3 1486 296.4 1485.4 296.2L1485.3 296.5C1486 296.7 1486.8 296.6 1487.5 296.3C1488.3 296 1489.1 295.6 1489.7 295.2V294.9ZM1485.5 296.2C1485.5 296.2 1485.4 296.2 1485.4 296.1L1485.3 296.4C1485.4 296.4 1485.4 296.4 1485.5 296.5V296.2ZM1485.3 296.1C1484.1 295.6 1483.3 294.4 1482.9 293.3C1482.7 292.7 1482.5 292.2 1482.5 291.8C1482.4 291.6 1482.4 291.5 1482.4 291.3C1482.4 291.2 1482.4 291.2 1482.4 291.2C1482.4 291.2 1482.4 291.2 1482.2 291.2C1482 291.2 1482 291.2 1482 291.2V291.3C1482 291.4 1482 291.6 1482.1 291.8C1482.2 292.2 1482.3 292.7 1482.6 293.3C1483.1 294.4 1483.8 295.7 1485.2 296.3L1485.3 296.1Z" fill="#04172D"/>
<path d="M1492.1 313.4C1489.9 312.1 1488.4 312.9 1486.1 311.9C1483.8 310.9 1482.8 309 1480.4 308.4C1478.4 307.9 1476.7 308.2 1474.7 308.7C1473.2 309.1 1473.2 310.4 1471.7 309.8C1469.8 309.2 1471.5 304.7 1471.5 304.7C1471.5 304.7 1470.6 306.4 1470.1 307.5C1468.5 311 1465 311.5 1465.6 315.3C1466.2 319 1463.2 321.5 1463.2 324C1463.2 326.2 1463.4 329.1 1466.4 331.8C1468.4 333.5 1467.9 332.2 1469.9 333.8C1472.1 335.5 1470.9 336.2 1475.2 338.7C1479.5 341.2 1482.7 339.9 1485.8 340.8C1490.5 342.1 1492.2 342.7 1497 342.8C1501.2 342.9 1503.8 343.2 1508 343.5C1513.2 343.9 1515.5 340.6 1519.3 338.8C1523.5 336.8 1522.3 328.7 1524.1 324.7C1525.2 322.4 1528.4 315.6 1528.4 315.6C1528.4 315.6 1523.5 321.3 1521.9 322.5C1519.1 324.4 1517.5 325.6 1514.2 326.4C1510.2 327.3 1507.7 326.9 1503.8 325.6C1501.5 324.8 1502.8 325.5 1501.5 323.4C1500.6 321.9 1498.1 319.9 1497.4 318.3C1496.3 315.7 1494.5 314.8 1492.1 313.4Z" fill="url(#paint13_linear)"/>
<path d="M1470.5 313.4C1472.3 310 1476.5 310.4 1481.8 313.1C1487.8 316.2 1497.9 322.9 1496 325.8C1494.2 329.2 1483.8 329.8 1477.9 326.8C1472 323.7 1468.8 316.7 1470.5 313.4Z" fill="#F7D5D6"/>
<path d="M1475 313.7C1476.7 312.6 1478.8 313.3 1480.8 314.7C1481.8 315.4 1482.8 316.3 1483.7 317.1C1483.9 317.2 1484 317.4 1484.2 317.5C1484.9 318.1 1485.5 318.7 1486.1 319.1C1486.4 319.3 1486.7 319.5 1487.1 319.6C1487.5 319.8 1488 319.9 1488.5 320.1C1488.8 320.2 1489.1 320.3 1489.3 320.4C1490.1 320.6 1490.9 320.9 1491.6 321.1C1492.1 321.3 1492.5 321.5 1492.9 321.7C1493.3 321.9 1493.5 322.1 1493.7 322.3C1493.9 322.5 1493.9 322.6 1493.9 322.7C1493.9 322.8 1493.8 323 1493.5 323.2C1490.9 325.5 1486.7 326.6 1481.4 324.6C1479.6 323.9 1476.6 322 1474.8 319.8C1473.9 318.7 1473.3 317.6 1473.3 316.6C1473.2 315.5 1473.7 314.6 1475 313.7Z" fill="white" stroke="#EDA091"/>
<path d="M1538.4 527.7L1448.6 531.5C1448.6 531.5 1448.8 531.8 1449.2 532.4L1420.1 532C1420.1 532 1390.5 632.4 1377.7 698.1C1363.7 769.4 1353.3 882.7 1353.3 882.7L1386.8 883.3C1386.8 883.3 1412.8 778.4 1437.7 712.3C1448.2 684.3 1462.2 648.4 1475 617.3C1478.7 645.4 1481.2 676.6 1483.4 703.7C1484.4 715.8 1485.3 727.1 1486.2 737C1492.6 805.4 1503.4 888.5 1503.4 888.5L1534.7 888.2C1534.7 888.2 1542.1 804.8 1544.4 736.5C1546.9 664.4 1538.4 527.7 1538.4 527.7Z" fill="url(#paint14_radial)"/>
<path d="M1528 364.5C1526.6 372.7 1497.7 384.1 1482.5 381.4C1467.3 378.7 1452 366.1 1453.5 358C1454.5 352.5 1457.4 357.6 1462.5 358C1468.9 358.5 1477.5 357.5 1486 359C1501.2 361.7 1529.6 355.5 1528 364.5Z" fill="#F7D5D6"/>
<path d="M1455.5 355C1465 362.5 1470.5 366.4 1479.5 367C1493.3 367.9 1510 358.9 1524.5 358.9C1557 365 1539.1 541 1539.1 541C1539.1 541 1496.6 549.9 1473 550C1448.7 550.1 1418 541 1418 541C1418 541 1424.5 366 1455.5 355Z" fill="url(#paint15_linear)"/>
<path d="M1528 432C1528 432 1530.1 439 1535 447C1537.8 451.5 1543 458 1543 458V499.5L1539 541H1530.5C1530.5 541 1517.8 496.1 1520.5 467.5C1522.1 450.9 1528 432 1528 432Z" fill="#A5B3FF" fill-opacity="0.5"/>
<path d="M1456.3 412L1462.4 426.1L1482.7 473.1L1433.8 494.2C1430.2 495.7 1428.7 500.2 1430.4 504L1404.1 442.9C1402.4 439 1404 434.6 1407.5 433.1L1456.3 412ZM1430.6 504.4C1430.5 504.3 1430.5 504.1 1430.4 504L1430.6 504.4Z" fill="#FF7E67"/>
<path d="M1433.8 494.2L1482.7 473.1C1482.2 478.7 1484.2 483.4 1488.8 487.2L1440 508.3C1436.4 509.8 1432.2 507.9 1430.5 504.1C1428.7 500.1 1430.3 495.7 1433.8 494.2Z" fill="#FF4970"/>
<path d="M1487.3 485.9C1484.5 483.1 1483 479.4 1482.6 474.9L1435.7 495.1C1432.7 496.4 1431.3 499.9 1432.6 502.9C1433.9 505.9 1437.4 507.3 1440.4 506L1487.3 485.9Z" fill="white"/>
<path d="M1411.5 435.3L1454.5 416.8L1477.8 470.9L1434.9 489.4L1411.5 435.3Z" fill="#FFB900"/>
<path d="M1429 455.7L1457 443.6L1457.8 445.5L1429.8 457.6L1429 455.7Z" fill="#DBFCFF"/>
<path d="M1426.7 450.3L1454.7 438.2L1455.5 440.1L1427.5 452.2L1426.7 450.3Z" fill="#DBFCFF"/>
<path d="M1424.4 445L1452.4 432.9L1453.2 434.8L1425.2 446.9L1424.4 445Z" fill="#DBFCFF"/>
<path d="M1431.3 461L1459.3 448.9L1460.1 450.8L1432.1 462.9L1431.3 461Z" fill="#DBFCFF"/>
<path d="M1433.6 466.3L1453.5 457.7L1454.3 459.6L1434.4 468.2L1433.6 466.3Z" fill="#DBFCFF"/>
<path d="M1485.1 467.6L1470 438.5C1470 438.5 1466.5 441 1472.3 454.6C1472.3 454.6 1439.6 441.1 1436.7 444.4C1433.6 447.5 1459.4 458.7 1459.4 458.7C1459.4 458.7 1428.6 450.3 1424.9 454C1421.2 457.7 1452.2 465.7 1452.2 465.7C1452.2 465.7 1424.7 464.4 1423.7 468.4C1423 472.2 1449.8 472.8 1449.8 472.8C1449.8 472.8 1427.3 474.4 1427.7 478.5C1427.9 482.5 1449.8 479.7 1449.8 479.7C1449.8 479.7 1458.8 486.3 1474.7 484.4C1474.7 484.4 1534.8 514.2 1567.3 514.9C1593.5 513.1 1596.3 503.5 1585.1 495C1567.9 479.2 1523.5 470.2 1485.1 467.6Z" fill="#F7D5D6"/>
<path d="M1512.9 369.8C1500.5 398.4 1555.5 485.6 1557.2 489.8C1557.2 489.8 1576.3 515.5 1590.7 505.1C1590.7 505.1 1590.8 479.6 1579.9 446.1C1563.5 395.3 1537.6 336.2 1512.9 369.8Z" fill="#F7D5D6"/>
<path d="M1553.4 381.7C1572.9 414.8 1579.9 443.4 1579.9 443.4C1579.9 443.4 1565 460.8 1538.8 458.4C1538.8 458.4 1529.7 443.4 1515.1 405.1C1509.5 390.5 1506.6 366.8 1521 360.8C1534.5 355.1 1545.9 369 1553.4 381.7Z" fill="url(#paint16_linear)"/>
<path d="M1477.5 375C1478.33 375 1479 374.328 1479 373.5C1479 372.672 1478.33 372 1477.5 372C1476.67 372 1476 372.672 1476 373.5C1476 374.328 1476.67 375 1477.5 375Z" fill="#F1F1F1"/>
<path d="M1474.5 385C1475.33 385 1476 384.328 1476 383.5C1476 382.672 1475.33 382 1474.5 382C1473.67 382 1473 382.672 1473 383.5C1473 384.328 1473.67 385 1474.5 385Z" fill="#F1F1F1"/>
<path d="M1471.5 395C1472.33 395 1473 394.328 1473 393.5C1473 392.672 1472.33 392 1471.5 392C1470.67 392 1470 392.672 1470 393.5C1470 394.328 1470.67 395 1471.5 395Z" fill="#F1F1F1"/>
<path d="M1478 370V366L1481 367L1478 370Z" fill="#F7D5D6"/>
<path d="M1787.2 323.9H1774.4C1773 323.9 1771.9 325 1771.9 326.5V395.4H1789.8V326.5C1789.8 325 1788.6 323.9 1787.2 323.9Z" fill="#FF7E67"/>
<path d="M1780.8 323.9H1774.4C1773 323.9 1771.9 325 1771.9 326.5V395.4H1780.8V323.9Z" fill="#FF4970"/>
<path d="M1705.6 313.7H1690.2C1688.8 313.7 1687.6 314.8 1687.6 316.3V395.4H1708.1V316.3C1708.2 314.8 1707.1 313.7 1705.6 313.7Z" fill="#FFB900"/>
<path d="M1705.6 313.7H1697.9V395.3H1708.2V316.2C1708.2 314.8 1707.1 313.7 1705.6 313.7Z" fill="#EBAA00"/>
<path d="M1677.5 431C1676.6 431 1675.7 430.5 1675.2 429.6L1662.4 404.1C1661.8 402.8 1662.3 401.3 1663.5 400.7C1664.8 400.1 1666.3 400.6 1666.9 401.8L1674.8 417.6V402.9C1674.8 401.5 1675.9 400.3 1677.4 400.3C1678.9 400.3 1680 401.4 1680 402.9V428.4C1680 429.6 1679.2 430.6 1678 430.9C1677.9 431 1677.7 431 1677.5 431Z" fill="#868491"/>
<path d="M1789.8 431C1789.6 431 1789.4 431 1789.2 430.9C1788 430.6 1787.2 429.6 1787.2 428.4V402.9C1787.2 401.5 1788.3 400.3 1789.7 400.3C1791.1 400.3 1792.3 401.4 1792.3 402.9V417.6L1800.2 401.8C1800.8 400.5 1802.4 400 1803.6 400.7C1804.9 401.3 1805.4 402.9 1804.7 404.1L1791.9 429.6C1791.7 430.5 1790.8 431 1789.8 431Z" fill="#868491"/>
<path d="M1731.1 313.7H1726C1724.6 313.7 1723.5 314.8 1723.5 316.3V395.4H1733.7V316.3C1733.6 314.8 1732.5 313.7 1731.1 313.7Z" fill="#5D647F"/>
<path d="M1769.3 313.7H1764.2C1762.8 313.7 1761.6 314.8 1761.6 316.3V395.4H1771.8V316.3C1771.9 314.8 1770.8 313.7 1769.3 313.7Z" fill="#44CEDB"/>
<path d="M1685.2 321.3H1680.1C1678.7 321.3 1677.5 322.4 1677.5 323.9V395C1677.5 395.2 1677.6 395.3 1677.8 395.3H1687.7V323.9C1687.7 322.4 1686.6 321.3 1685.2 321.3Z" fill="#FF7E67"/>
<path d="M1675 329H1667.3C1665.9 329 1664.7 330.1 1664.7 331.6V395.4H1677.5V331.6C1677.5 330.1 1676.4 329 1675 329Z" fill="#1BBD85"/>
<path d="M1800 318.8H1792.4C1791 318.8 1789.8 319.9 1789.8 321.4V395.4H1802.6V321.4C1802.5 319.9 1801.4 318.8 1800 318.8Z" fill="#5D647F"/>
<path d="M1759.1 306H1746.3C1744.9 306 1743.7 307.1 1743.7 308.6V395.3H1761.5V308.6C1761.7 307.1 1760.6 306 1759.1 306Z" fill="#FF7E67"/>
<path d="M1741.3 323.9H1736.2C1734.8 323.9 1733.6 325 1733.6 326.5V395.4H1743.8V326.5C1743.8 325 1742.7 323.9 1741.3 323.9Z" fill="#1BBD85"/>
<path d="M1720.9 318.8H1710.7C1709.3 318.8 1708.1 319.9 1708.1 321.4V395.4H1723.4V321.4C1723.4 319.9 1722.3 318.8 1720.9 318.8Z" fill="#44CEDB"/>
<path d="M1812.8 405.5H1654.5C1653.1 405.5 1651.9 404.4 1651.9 402.9V397.8C1651.9 396.4 1653 395.2 1654.5 395.2H1812.8C1814.2 395.2 1815.4 396.3 1815.4 397.8V402.9C1815.4 404.3 1814.3 405.5 1812.8 405.5Z" fill="#E6BE8A"/>
<path d="M1697.9 321.3H1687.7V326.4H1697.9V321.3Z" fill="#425479"/>
<path d="M1708.1 321.3H1697.9V326.4H1708.1V321.3Z" fill="#425479"/>
<path d="M1697.9 382.5H1687.7V387.6H1697.9V382.5Z" fill="#425479"/>
<path d="M1708.1 382.5H1697.9V387.6H1708.1V382.5Z" fill="#425479"/>
<path d="M1743.9 331.5H1738.8V336.6H1743.9V331.5Z" fill="#00A077"/>
<path d="M1743.9 380H1738.8V385.1H1743.9V380Z" fill="#00A077"/>
<path d="M1780.8 331.5H1771.9V336.6H1780.8V331.5Z" fill="#FF9100"/>
<path d="M1780.8 380H1771.9V385.1H1780.8V380Z" fill="#FF9100"/>
<path d="M1789.8 331.5H1780.9V336.6H1789.8V331.5Z" fill="#FFCD00"/>
<path d="M1789.8 380H1780.9V385.1H1789.8V380Z" fill="#FFCD00"/>
<path d="M1708.1 321.3V395.3H1715.8V318.8H1710.7C1709.3 318.8 1708.1 319.9 1708.1 321.3Z" fill="#23B6C4"/>
<path d="M1677.5 395.3H1682.6V321.3H1680.1C1678.7 321.3 1677.5 322.4 1677.5 323.9V395.3Z" fill="#FF4970"/>
<path d="M1664.8 395.3H1671.2V329H1667.1C1665.9 329 1664.9 330 1664.9 331.2V395.3H1664.8Z" fill="#279D59"/>
<path d="M1723.4 395.3H1728.5V313.7H1725.9C1724.5 313.7 1723.4 314.8 1723.4 316.3V395.3Z" fill="#5C546A"/>
<path d="M1733.6 395.3H1738.7V323.9H1736.2C1734.8 323.9 1733.6 325 1733.6 326.5V395.3Z" fill="#279D59"/>
<path d="M1738.7 331.5H1733.6V336.6H1738.7V331.5Z" fill="#5D647F"/>
<path d="M1738.7 380H1733.6V385.1H1738.7V380Z" fill="#425479"/>
<path d="M1743.8 395.3H1752.7V306H1746.3C1744.9 306 1743.7 307.1 1743.7 308.6V395.3H1743.8Z" fill="#FF4970"/>
<path d="M1766.8 313.7H1764.2C1762.8 313.7 1761.6 314.8 1761.6 316.3V395.4H1766.7V313.7H1766.8Z" fill="#23B6C4"/>
<path d="M1796.2 318.8H1792.3C1790.9 318.8 1789.7 319.9 1789.7 321.4V395.4H1796.1V318.8H1796.2Z" fill="#5C546A"/>
<path d="M1652 400.4V403C1652 404.4 1653.1 405.6 1654.6 405.6H1812.9C1814.3 405.6 1815.5 404.5 1815.5 403V400.4H1652Z" fill="#C9A07C"/>
<path d="M1478.3 283.6L1517.7 302.2L1510.5 310.7L1504.4 309.3L1499.4 307.2L1497.1 294.3L1485.1 300.3L1479.3 297.9L1474.7 293.2L1478.3 283.6Z" fill="white" fill-opacity="0.5"/>
<path d="M1477.8 282.8C1480.8 283.3 1493 288.6 1494.1 290.1C1494.2 290.3 1496.9 292.3 1496.9 292.3L1498 292.9L1499.2 293.4C1499.2 293.4 1502.6 294.1 1502.8 294.1C1504.7 294.1 1516.6 299.8 1518.9 301.7C1519.6 302 1520.2 302.4 1520.2 302.5C1520.2 302.8 1519 304.5 1518.9 304.5C1518.8 304.5 1518.5 304.5 1518 304.4C1517.9 304.5 1517.7 304.6 1517.6 304.7C1517 305.3 1514.5 308.1 1513.7 309.1C1510.4 312.9 1502 310.4 1498.8 307.3C1495.9 304.5 1497.4 299.1 1497.4 298C1497.4 297.8 1497.5 297.5 1497.6 297.1C1497.2 296.6 1496.7 296 1496.2 295.9C1495.9 295.6 1495 295.6 1494.3 295.6C1494 295.9 1493.8 296.1 1493.6 296.3C1492.6 297 1488.5 301.2 1484.3 300.7C1479.6 300.2 1472.5 295.5 1474 290.9C1474.4 289.7 1475.5 286.3 1475.8 285.5C1475.9 285.3 1475.9 285.1 1475.9 285C1475.6 284.7 1475.4 284.5 1475.3 284.5C1475.3 284.4 1476.1 282.5 1476.4 282.4C1476.6 282.4 1477.2 282.6 1477.8 282.8ZM1477.1 287.5C1476.9 288 1476.8 288.4 1476.6 288.9C1476.3 289.8 1476 290.6 1475.7 291.5C1474.5 295.1 1480.9 298.9 1484.5 299.3C1484.7 299.3 1484.8 299.3 1485 299.3C1486 299.3 1487 298.9 1487.9 298.5C1488.9 298 1489.9 297.3 1490.7 296.7C1491.2 296.3 1491.8 295.8 1492.4 295.3C1493.5 293.9 1493.5 292.7 1493.2 291.8C1490.6 289.7 1481.6 284.7 1478.9 285.5C1478.2 285.8 1477.4 286.6 1477.1 287.5ZM1515.2 304.9C1515.9 304.2 1516.1 303.2 1515.9 302.5C1515.1 300 1505.3 296.5 1501.8 295.8C1500.9 296.1 1499.8 296.8 1499.1 298.4C1499 299 1498.9 299.7 1498.8 300.4C1498.7 301.4 1498.6 302.5 1498.8 303.5C1498.9 304.4 1499.2 305.3 1499.8 306C1499.9 306.1 1500 306.2 1500.1 306.3C1502.6 308.6 1509.8 311.1 1512.3 308.1C1512.9 307.4 1513.5 306.7 1514.2 306C1514.5 305.7 1514.9 305.3 1515.2 304.9Z" fill="#814D00"/>
<path d="M199.436 1156.01C217.434 1119.39 68.937 1171.33 88.4005 1148.77C90.9832 1130.99 180.001 1106.04 189.79 1064.69C198.057 1029.77 93.345 1083.89 98.1879 1063.79C105.804 1032.18 186.116 1017.94 180.736 952.816C169.037 929.89 121.445 1000.05 125.067 973.855C141.015 941.314 198.298 881.151 175.856 860.472C153.414 839.794 126.001 891.977 110.502 957.44C97.2717 981.232 101.249 876.814 80.0036 893.27C35.3327 927.87 71.2028 1000.47 59.1486 1032.32C50.2847 1055.75 20.618 960.139 4.17574 996.339C-9.97645 1027.5 38.1416 1098.44 30.6625 1116.47C18.8428 1144.98 -15.2024 1027.32 -31.1838 1047.09C-77.8984 1104.89 -34.2941 1181 -8.77147 1210.69C25.373 1232.96 47.4877 1232.55 77.9398 1231.99C121.757 1221.19 185.062 1185.25 199.436 1156.01Z" fill="url(#paint17_linear)"/>
<mask id="mask1" mask-type="alpha" maskUnits="userSpaceOnUse" x="-52" y="855" width="253" height="378">
<path d="M199.436 1156.01C217.434 1119.39 68.937 1171.33 88.4005 1148.77C90.9832 1130.99 180.001 1106.04 189.79 1064.69C198.057 1029.77 93.345 1083.89 98.1879 1063.79C105.804 1032.18 186.116 1017.94 180.736 952.816C169.037 929.89 121.445 1000.05 125.067 973.855C141.015 941.314 198.298 881.151 175.856 860.472C153.414 839.794 126.001 891.977 110.502 957.44C97.2716 981.232 101.249 876.814 80.0035 893.27C35.3326 927.87 71.2028 1000.47 59.1486 1032.32C50.2848 1055.75 20.618 960.138 4.17575 996.339C-9.97645 1027.5 38.1416 1098.44 30.6626 1116.47C18.8428 1144.98 -15.2024 1027.32 -31.1838 1047.09C-77.8984 1104.89 -34.2942 1181 -8.77146 1210.69C25.3729 1232.96 47.4877 1232.55 77.9398 1231.99C121.757 1221.19 185.062 1185.25 199.436 1156.01Z" fill="#4EAF9D"/>
</mask>
<g mask="url(#mask1)">
<path d="M173.012 856.169L-5.52734 772.684L-182.531 1151.22L-3.99215 1234.7L173.012 856.169Z" fill="url(#paint18_radial)" fill-opacity="0.5"/>
</g>
</g>
<defs>
<linearGradient id="paint0_linear" x1="1715.54" y1="12.4655" x2="2003.63" y2="479.309" gradientUnits="userSpaceOnUse">
<stop stop-color="#44CEDB"/>
<stop offset="1" stop-color="#4EAF9D"/>
</linearGradient>
<linearGradient id="paint1_linear" x1="1714.65" y1="11.7558" x2="2002.74" y2="478.6" gradientUnits="userSpaceOnUse">
<stop stop-color="#44CEDB"/>
<stop offset="1" stop-color="#29344C"/>
</linearGradient>
<linearGradient id="paint2_linear" x1="2099.77" y1="-139.223" x2="1860.33" y2="196.659" gradientUnits="userSpaceOnUse">
<stop stop-color="#425479" stop-opacity="0"/>
<stop offset="1" stop-color="#425479" stop-opacity="0.46"/>
</linearGradient>
<linearGradient id="paint3_linear" x1="1248.81" y1="550.054" x2="1259.46" y2="1197.09" gradientUnits="userSpaceOnUse">
<stop stop-color="#29344C"/>
<stop offset="1" stop-color="#5343C6"/>
</linearGradient>
<linearGradient id="paint4_linear" x1="1030.99" y1="334.923" x2="1145.03" y2="350.722" gradientUnits="userSpaceOnUse">
<stop offset="0.1593" stop-color="#AD7200"/>
<stop offset="1" stop-color="#FBD65A"/>
</linearGradient>
<linearGradient id="paint5_linear" x1="1211.19" y1="388.386" x2="1021.69" y2="488.886" gradientUnits="userSpaceOnUse">
<stop stop-color="white"/>
<stop offset="0.569" stop-color="#E8FEFF"/>
<stop offset="0.9396" stop-color="#E8FEFF"/>
</linearGradient>
<linearGradient id="paint6_linear" x1="1025.45" y1="494.746" x2="1107.35" y2="463.14" gradientUnits="userSpaceOnUse">
<stop stop-color="#E7FEFF"/>
<stop offset="1" stop-color="#8DF7FC" stop-opacity="0"/>
</linearGradient>
<radialGradient id="paint7_radial" cx="0" cy="0" r="1" gradientUnits="userSpaceOnUse" gradientTransform="translate(1140.36 505.307) rotate(139.926) scale(251.281 291.865)">
<stop stop-color="#FE9AB0"/>
<stop offset="1" stop-color="#E64C76"/>
</radialGradient>
<linearGradient id="paint8_linear" x1="1096.09" y1="448.118" x2="1004.7" y2="429.673" gradientUnits="userSpaceOnUse">
<stop stop-color="white"/>
<stop offset="0.569" stop-color="#E8FEFF"/>
<stop offset="0.9396" stop-color="#E8FEFF"/>
</linearGradient>
<linearGradient id="paint9_linear" x1="984.537" y1="393.619" x2="1093.83" y2="302.348" gradientUnits="userSpaceOnUse">
<stop stop-color="#FFD856"/>
<stop offset="1" stop-color="#AD7200"/>
</linearGradient>
<linearGradient id="paint10_linear" x1="1100.4" y1="271.259" x2="1031.43" y2="317.036" gradientUnits="userSpaceOnUse">
<stop stop-color="#FBD65A"/>
<stop offset="1" stop-color="#AD7200"/>
</linearGradient>
<linearGradient id="paint11_linear" x1="1468.05" y1="374.861" x2="1041.35" y2="361.361" gradientUnits="userSpaceOnUse">
<stop stop-color="#CBE3F7"/>
<stop offset="1" stop-color="#5E48FF"/>
</linearGradient>
<linearGradient id="paint12_linear" x1="1549.23" y1="256.169" x2="1499.1" y2="291.72" gradientUnits="userSpaceOnUse">
<stop stop-color="#2D4358"/>
<stop offset="1" stop-color="#04172D"/>
</linearGradient>
<linearGradient id="paint13_linear" x1="1466.41" y1="301.666" x2="1509.99" y2="333.136" gradientUnits="userSpaceOnUse">
<stop stop-color="#2D4358"/>
<stop offset="1" stop-color="#04172D"/>
</linearGradient>
<radialGradient id="paint14_radial" cx="0" cy="0" r="1" gradientUnits="userSpaceOnUse" gradientTransform="translate(1398.53 687.997) rotate(83.2902) scale(310.323 115.822)">
<stop stop-color="#425479"/>
<stop offset="1" stop-color="#29344C"/>
</radialGradient>
<linearGradient id="paint15_linear" x1="1431.14" y1="475.291" x2="2026.03" y2="229.782" gradientUnits="userSpaceOnUse">
<stop stop-color="#CBE3F7"/>
<stop offset="1" stop-color="#4930FF"/>
</linearGradient>
<linearGradient id="paint16_linear" x1="1260.58" y1="331.205" x2="1589.42" y2="424.668" gradientUnits="userSpaceOnUse">
<stop stop-color="#5942FE"/>
<stop offset="1" stop-color="#CBE3F7"/>
</linearGradient>
<linearGradient id="paint17_linear" x1="45.2266" y1="1093.59" x2="332.392" y2="1142.03" gradientUnits="userSpaceOnUse">
<stop stop-color="#4EAF9D"/>
<stop offset="1" stop-color="#425479"/>
</linearGradient>
<radialGradient id="paint18_radial" cx="0" cy="0" r="1" gradientUnits="userSpaceOnUse" gradientTransform="translate(62.6784 1044.52) rotate(-149.435) scale(257.787 237.459)">
<stop stop-color="#425479"/>
<stop offset="1" stop-color="#425479" stop-opacity="0"/>
</radialGradient>
<clipPath id="clip0">
<rect width="1920" height="1080" fill="white"/>
</clipPath>
</defs>
</svg>
