<svg width="60" height="60" viewBox="0 0 60 60" fill="none" xmlns="http://www.w3.org/2000/svg">
<path d="M30 60C46.5685 60 60 46.5685 60 30C60 13.4315 46.5685 0 30 0C13.4315 0 0 13.4315 0 30C0 46.5685 13.4315 60 30 60Z" fill="#FF4970"/>
<path d="M24.8812 32.2667H30.2471C29.3052 34.9293 26.7542 36.8384 23.7681 36.8166C20.1447 36.7899 17.1481 33.8912 17.0077 30.2702C16.857 26.3889 19.9708 23.1829 23.819 23.1829C25.5788 23.1829 27.1846 23.8536 28.3952 24.9522C28.682 25.2124 29.1182 25.2142 29.4004 24.9486L31.3713 23.0941C31.6796 22.8039 31.6805 22.3139 31.3731 22.023C29.4534 20.2038 26.8779 19.0701 24.0378 19.0149C17.9804 18.8963 12.8744 23.863 12.8323 29.9216C12.7895 36.0259 17.7249 40.9875 23.819 40.9875C29.68 40.9875 34.4677 36.3985 34.7883 30.6181C34.7968 30.5456 34.8025 28.0962 34.8025 28.0962H24.8813C24.4746 28.0962 24.1451 28.4259 24.1451 28.8324V31.5305C24.145 31.9371 24.4747 32.2667 24.8812 32.2667Z" fill="white"/>
<path d="M43.8882 28.3411V25.7047C43.8882 25.3483 43.5996 25.0597 43.2432 25.0597H41.0244C40.668 25.0597 40.3791 25.3483 40.3791 25.7047V28.3411H37.7434C37.387 28.3411 37.0977 28.6297 37.0977 28.9863V31.2049C37.0977 31.561 37.3868 31.8501 37.7434 31.8501H40.3791V34.4862C40.3791 34.8425 40.6678 35.1314 41.0244 35.1314H43.2432C43.5996 35.1314 43.8882 34.8425 43.8882 34.4862V31.8501H46.5246C46.8807 31.8501 47.1698 31.561 47.1698 31.2049V28.9863C47.1698 28.6299 46.8807 28.3411 46.5246 28.3411H43.8882Z" fill="white"/>
</svg>
