<svg width="1902" height="1030" viewBox="0 0 1902 1030" fill="none" xmlns="http://www.w3.org/2000/svg">
<path d="M198.4 1106C216.4 1069.4 67.9 1121.3 87.4 1098.8C90 1081 179 1056.1 188.8 1014.7C197.1 979.8 92.4 1033.9 97.2 1013.8C104.8 982.2 185.1 967.9 179.7 902.8C168 879.9 120.4 950 124 923.8C139.9 891.3 197.2 831.1 174.8 810.4C152.4 789.7 124.9 841.9 109.4 907.4C96.2 931.2 100.1 826.8 78.9 843.2C34.2 877.8 70.1 950.4 58 982.3C49.1 1005.7 19.5 910.1 2.99998 946.3C-11.2 977.5 37 1048.4 29.5 1066.4C17.7 1094.9 -16.4 977.2 -32.3 997C-79 1054.8 -35.4 1130.9 -9.90002 1160.6C24.2 1182.9 46.4 1182.5 76.8 1181.9C120.8 1171.2 184.1 1135.3 198.4 1106Z" fill="url(#paint0_linear)"/>
<mask id="mask0" mask-type="alpha" maskUnits="userSpaceOnUse" x="-53" y="805" width="253" height="378">
<path d="M198.4 1106C216.4 1069.4 67.9 1121.3 87.4 1098.8C90 1081 179 1056.1 188.8 1014.7C197.1 979.8 92.4 1033.9 97.2 1013.8C104.8 982.2 185.1 967.9 179.7 902.8C168 879.9 120.4 950 124 923.8C139.9 891.3 197.2 831.1 174.8 810.4C152.4 789.7 124.9 841.9 109.4 907.4C96.2 931.2 100.1 826.8 78.9 843.2C34.2 877.8 70.1 950.4 58 982.3C49.1 1005.7 19.5 910.1 2.99998 946.3C-11.2 977.5 37 1048.4 29.5 1066.4C17.7 1094.9 -16.4 977.2 -32.3 997C-79 1054.8 -35.4 1130.9 -9.90002 1160.6C24.2 1182.9 46.4 1182.5 76.8 1181.9C120.8 1171.2 184.1 1135.3 198.4 1106Z" fill="#4EAF9D"/>
</mask>
<g mask="url(#mask0)">
<path d="M-6.5 722.7L172 806.2L-5 1184.7L-183.5 1101.2L-6.5 722.7Z" fill="url(#paint1_radial)" fill-opacity="0.5"/>
</g>
<path d="M1819 426C1849.38 426 1874 401.6 1874 371.5C1874 341.4 1849.38 317 1819 317C1788.62 317 1764 341.4 1764 371.5C1764 401.6 1788.62 426 1819 426Z" fill="white"/>
<path d="M968.1 642.5C967.8 642.5 967.4 642.4 967.2 642.1C967 641.9 966.8 641.5 966.8 641.2C966.8 640.9 966.9 640.5 967.2 640.3C967.7 639.8 968.5 639.8 969 640.3C969.2 640.5 969.4 640.9 969.4 641.2C969.4 641.5 969.3 641.8 969 642.1C968.7 642.3 968.4 642.5 968.1 642.5Z" fill="#FF4970"/>
<path d="M1631 136H1865C1885.4 136 1902 152.6 1902 173C1902 193.4 1885.4 210 1865 210H1631C1610.6 210 1594 193.4 1594 173C1594 152.6 1610.6 136 1631 136Z" fill="white"/>
<path d="M1487 741C1664.28 741 1808 597.283 1808 420C1808 242.717 1664.28 99 1487 99C1309.72 99 1166 242.717 1166 420C1166 597.283 1309.72 741 1487 741Z" fill="url(#paint2_linear)"/>
<path d="M1369.16 474.053C1342.66 444.853 1336.52 596.775 1323.16 571.259C1308.11 562.615 1317.35 473.743 1283.67 450.24C1255.23 430.39 1266.62 543.736 1250.28 532.235C1224.58 514.146 1240.35 436.911 1179.92 418.581C1155.15 420.94 1201.28 488.665 1179.02 476.091C1155.45 450.185 1121.76 377.308 1095.2 390.12C1068.63 402.932 1105.77 446.128 1159.09 483.34C1175.76 503.693 1083.34 462.977 1090.58 487.922C1105.78 540.372 1183.78 533.962 1208.12 556.126C1226.01 572.423 1129.54 565.074 1156.22 592.726C1179.19 616.527 1260.06 598.52 1273.6 611.656C1295.01 632.416 1177.17 621.159 1189.26 642.554C1224.58 705.091 1308.48 692.979 1344.24 680.606C1376.4 657.842 1383.9 637.825 1394.23 610.26C1400.11 567.044 1390.33 497.372 1369.16 474.053Z" fill="url(#paint3_linear)"/>
<mask id="mask1" mask-type="alpha" maskUnits="userSpaceOnUse" x="1086" y="388" width="310" height="303">
<path d="M1369.16 474.053C1342.66 444.853 1336.52 596.775 1323.16 571.259C1308.11 562.615 1317.35 473.743 1283.67 450.24C1255.23 430.39 1266.62 543.736 1250.28 532.235C1224.58 514.146 1240.35 436.911 1179.92 418.581C1155.15 420.94 1201.28 488.665 1179.02 476.091C1155.45 450.185 1121.76 377.308 1095.2 390.12C1068.63 402.932 1105.77 446.127 1159.09 483.34C1175.76 503.693 1083.34 462.977 1090.58 487.922C1105.78 540.372 1183.78 533.962 1208.12 556.126C1226.01 572.423 1129.54 565.073 1156.22 592.726C1179.19 616.527 1260.06 598.519 1273.6 611.656C1295.01 632.415 1177.17 621.159 1189.26 642.554C1224.58 705.091 1308.48 692.979 1344.24 680.606C1376.4 657.842 1383.9 637.824 1394.23 610.26C1400.11 567.044 1390.33 497.372 1369.16 474.053Z" fill="#4EAF9D"/>
</mask>
<g mask="url(#mask1)">
<rect x="951.789" y="521.891" width="190.485" height="403.861" transform="rotate(-43.3441 951.789 521.891)" fill="url(#paint4_radial)" fill-opacity="0.5"/>
</g>
<path opacity="0.3" d="M1369.16 474.053C1342.66 444.853 1336.52 596.775 1323.16 571.259C1308.11 562.615 1317.35 473.743 1283.67 450.24C1255.23 430.39 1266.62 543.736 1250.28 532.235C1224.58 514.146 1240.35 436.911 1179.92 418.581C1155.15 420.94 1201.28 488.665 1179.02 476.091C1155.45 450.185 1121.76 377.308 1095.2 390.12C1068.63 402.932 1105.77 446.128 1159.09 483.34C1175.76 503.693 1083.34 462.977 1090.58 487.922C1105.78 540.372 1183.78 533.962 1208.12 556.126C1226.01 572.423 1129.54 565.074 1156.22 592.726C1179.19 616.527 1260.06 598.52 1273.6 611.656C1295.01 632.416 1177.17 621.159 1189.26 642.554C1224.58 705.091 1308.48 692.979 1344.24 680.606C1376.4 657.842 1383.9 637.825 1394.23 610.26C1400.11 567.044 1390.33 497.372 1369.16 474.053Z" fill="#425479"/>
<g opacity="0.8">
<path opacity="0.8" d="M1660.5 645C1664.6 658.7 1616.4 685.5 1552.7 704.7C1489 723.9 1434 728.4 1429.8 714.6C1425.6 700.8 1473.9 674.1 1537.6 654.9C1601.3 635.7 1656.4 631.3 1660.5 645Z" fill="url(#paint5_linear)"/>
</g>
<path d="M904 96.9C903.4 91 908.1 86 914 86H1228.1C1233.3 86 1237.7 90 1238.1 95.2L1250.2 254.2C1250.6 260 1246 265 1240.2 265H928.9C923.7 265 919.4 261.1 918.9 255.9L904 96.9Z" fill="white"/>
<path d="M903.9 96.8C903.4 91 908 86 913.9 86H1228.1C1233.3 86 1237.7 90 1238.1 95.2L1250.2 254.2C1250.6 260 1246 265 1240.2 265H926.9C921.7 265 917.4 261 916.9 255.8L903.9 96.8Z" fill="url(#paint6_linear)"/>
<path d="M967.9 102.1C950.4 104.3 938.1 121.5 940.5 140.6C942.9 159.7 959 173.4 976.5 171.2C994 169 1006.3 151.8 1003.9 132.7C1001.5 113.6 985.4 99.8999 967.9 102.1ZM974.3 153H974.1L960.6 154.7C959.3 143.9 967.9 142.8 969.5 139.8L969.6 138.5C966.7 137.3 964.3 134 963.8 129.7C963.1 124.1 965.9 119.2 970 118.7C974.1 118.2 978 122.3 978.7 127.9C979.2 132.1 977.8 135.9 975.3 137.8L975.7 139.2C978.2 141.6 986.6 140.7 987.9 151.4L974.3 153Z" fill="url(#paint7_linear)"/>
<path d="M1036 125H1102" stroke="#ABBAD8" stroke-width="8" stroke-linecap="round" stroke-linejoin="round"/>
<path d="M1040 161H1200" stroke="#ABBAD8" stroke-width="10" stroke-linecap="round" stroke-linejoin="round"/>
<path d="M1381 546.3C1366 509.8 1505.8 569.6 1488.5 546.5C1487.2 529.2 1402.9 499.3 1396.2 458.8C1390.5 424.6 1488 483.6 1484.6 463.9C1479.3 432.9 1402.8 414 1412.2 351.5C1425 330.2 1466.3 400.9 1464.5 375.4C1451.2 343 1399.9 281.2 1422.9 262.8C1445.9 244.3 1468.9 296.4 1479.6 360.6C1490.8 384.4 1493.8 283.5 1513.2 300.7C1554 337 1514.7 404.6 1524.3 436.1C1531.3 459.3 1566.1 369 1579.6 405C1591.2 436 1540.2 501.2 1546.2 519.1C1555.7 547.4 1596.2 436.1 1610.4 456.2C1651.7 515 1604.7 585.5 1578.1 612.5C1543.7 631.7 1522.4 629.9 1493.1 627.4C1451.7 614.2 1393 575.4 1381 546.3Z" fill="url(#paint8_linear)"/>
<path d="M1381 546.3C1366 509.8 1505.8 569.6 1488.5 546.5C1487.2 529.2 1402.9 499.3 1396.2 458.8C1390.5 424.6 1488 483.6 1484.6 463.9C1479.3 432.9 1402.8 414 1412.2 351.5C1425 330.2 1466.3 400.9 1464.5 375.4C1451.2 343 1399.9 281.2 1422.9 262.8C1445.9 244.3 1468.9 296.4 1479.6 360.6C1490.8 384.4 1493.8 283.5 1513.2 300.7C1554 337 1514.7 404.6 1524.3 436.1C1531.3 459.3 1566.1 369 1579.6 405C1591.2 436 1540.2 501.2 1546.2 519.1C1555.7 547.4 1596.2 436.1 1610.4 456.2C1651.7 515 1604.7 585.5 1578.1 612.5C1543.7 631.7 1522.4 629.9 1493.1 627.4C1451.7 614.2 1393 575.4 1381 546.3Z" fill="#4EAF9D"/>
<path d="M1603.6 190L1426 258.9L1572 635.4L1749.6 566.5L1603.6 190Z" fill="url(#paint9_radial)" fill-opacity="0.5"/>
<path opacity="0.3" d="M1381 546.3C1366 509.8 1505.8 569.6 1488.5 546.5C1487.2 529.2 1402.9 499.3 1396.2 458.8C1390.5 424.6 1488 483.6 1484.6 463.9C1479.3 432.9 1402.8 414 1412.2 351.5C1425 330.2 1466.3 400.9 1464.5 375.4C1451.2 343 1399.9 281.2 1422.9 262.8C1445.9 244.3 1468.9 296.4 1479.6 360.6C1490.8 384.4 1493.8 283.5 1513.2 300.7C1554 337 1514.7 404.6 1524.3 436.1C1531.3 459.3 1566.1 369 1579.6 405C1591.2 436 1540.2 501.2 1546.2 519.1C1555.7 547.4 1596.2 436.1 1610.4 456.2C1651.7 515 1604.7 585.5 1578.1 612.5C1543.7 631.7 1522.4 629.9 1493.1 627.4C1451.7 614.2 1393 575.4 1381 546.3Z" fill="#425479"/>
<path d="M968 195H1219" stroke="#ABBAD8" stroke-width="10" stroke-linecap="round" stroke-linejoin="round"/>
<path d="M1455.7 400.7C1469.3 312.8 1554.7 427.9 1548.5 390.4C1554.2 367.4 1523.9 314 1530.1 257.4C1541 156.6 1576.7 300.3 1581.5 273.2C1589.1 230.7 1527.1 190.4 1560.2 113.6C1580 91.6 1594.5 198.2 1603 164.3C1604.1 116.4 1577.1 17 1604.9 3.30001C1632.7 -10.4 1632.5 67.4 1616.6 155.3C1617.1 191.2 1654.9 58.3 1665.3 89.3C1687.2 154.5 1630.3 228 1626.3 273.1C1623.4 306.3 1680.7 232.3 1678.4 285C1676.5 330.3 1614.6 364.7 1612.9 390.5C1610.2 431.4 1689.4 316.4 1694 348.7C1707.4 443.3 1631.2 486 1604.2 525.8C1573.7 570.8 1545.3 606 1536.4 597.1C1502.2 589.3 1554.5 594 1522.7 507.3C1485.6 498.9 1445.8 464.5 1455.7 400.7Z" fill="url(#paint10_linear)"/>
<mask id="mask2" mask-type="alpha" maskUnits="userSpaceOnUse" x="1473" y="0" width="223" height="598">
<path d="M1476.4 389.2C1490 301.3 1554.7 426.8 1548.4 389.2C1554.1 366.2 1473.1 311.8 1483.1 256.3C1504 140.6 1580.9 310.9 1585.7 283.9C1593.3 241.4 1526.9 189.2 1560 112.4C1579.8 90.3999 1594.3 197 1602.8 163.1C1603.9 115.2 1576.9 15.7999 1604.7 2.09994C1632.5 -11.6001 1632.3 66.1999 1616.4 154.1C1616.9 190 1654.7 57.0999 1665.1 88.0999C1687 153.3 1630.1 226.8 1626.1 271.9C1623.2 305.1 1680.5 231.1 1678.2 283.8C1676.3 329.1 1614.4 363.5 1612.7 389.3C1610 430.2 1689.2 315.2 1693.8 347.5C1707.2 442.1 1631 484.8 1604 524.6C1573.5 569.6 1545.1 604.8 1536.2 595.9C1502 588.1 1554.3 592.8 1522.5 506.1C1485.6 497.7 1466.6 452.9 1476.4 389.2Z" fill="url(#paint11_linear)"/>
</mask>
<g mask="url(#mask2)">
<path d="M1795.7 -32.9H1606.6V535.5H1795.7V-32.9Z" fill="url(#paint12_linear)" fill-opacity="0.5"/>
</g>
<path d="M1156.7 221.5L1220.9 221.7C1227 221.7 1231.9 226.7 1231.9 232.8C1231.9 238.9 1226.9 243.8 1220.8 243.8L1156.6 243.6C1150.5 243.6 1145.6 238.6 1145.6 232.5C1145.6 226.4 1150.6 221.5 1156.7 221.5Z" fill="url(#paint13_linear)"/>
<path d="M1630.8 136C1610.3 136 1593.8 152.6 1593.8 173C1593.8 190.5 1605.9 205.1 1622.2 209V225.3L1645.4 210H1865C1885.5 210 1902 193.4 1902 173C1902 152.5 1885.4 136 1865 136H1630.8Z" fill="url(#paint14_linear)"/>
<g opacity="0.8">
<path opacity="0.8" d="M1520.9 642.3C1520.9 642.3 1378.4 514.3 1355 398.3C1338.5 316.4 1369.2 180.6 1369.2 180.6" stroke="#1C7C45"/>
<path opacity="0.8" d="M1283.9 342.9C1286.7 339.9 1305.2 353.6 1325.3 373.6C1345.3 393.6 1359.3 412.2 1356.5 415.2C1353.7 418.2 1335.2 404.5 1315.1 384.5C1295 364.5 1281.1 345.9 1283.9 342.9Z" fill="url(#paint15_linear)"/>
<path opacity="0.8" d="M1294.6 296.4C1297.7 293.7 1312.6 307.4 1327.8 326.8C1343 346.2 1352.8 364.2 1349.7 366.9C1346.6 369.6 1331.7 355.9 1316.5 336.5C1301.3 317.1 1291.4 299.1 1294.6 296.4Z" fill="url(#paint16_linear)"/>
<path opacity="0.8" d="M1305.9 242.4C1309.3 240.2 1321.8 256.2 1333.7 278.1C1345.6 300 1352.5 319.5 1349.1 321.6C1345.7 323.8 1333.2 307.8 1321.3 285.9C1309.4 264 1302.5 244.5 1305.9 242.4Z" fill="url(#paint17_linear)"/>
<path opacity="0.8" d="M1320.6 190.5C1324.2 188.7 1334.4 205.3 1343.4 227.5C1352.4 249.7 1356.7 269.1 1353.1 270.9C1349.5 272.7 1339.3 256.1 1330.3 233.9C1321.3 211.7 1317 192.3 1320.6 190.5Z" fill="url(#paint18_linear)"/>
<path opacity="0.8" d="M1274.7 398C1276.7 394.4 1299.4 402.9 1325.5 417.1C1351.6 431.2 1371.1 445.6 1369.1 449.2C1367.1 452.8 1344.4 444.3 1318.3 430.1C1292.2 415.9 1272.7 401.6 1274.7 398Z" fill="url(#paint19_linear)"/>
<path opacity="0.8" d="M1284.1 437.5C1286 433.9 1311.4 443 1340.9 458C1370.4 473 1392.7 488.1 1390.7 491.7C1388.8 495.3 1363.4 486.2 1333.9 471.2C1304.5 456.2 1282.2 441.1 1284.1 437.5Z" fill="url(#paint20_linear)"/>
<path opacity="0.8" d="M1290.2 491.1C1291.5 487.2 1320.1 492 1354 501.9C1387.9 511.7 1414.4 522.9 1413.1 526.8C1411.8 530.7 1383.2 525.9 1349.3 516C1315.4 506.2 1288.9 495 1290.2 491.1Z" fill="url(#paint21_linear)"/>
<path opacity="0.8" d="M1321.5 542.9C1322.6 538.5 1351.9 540.7 1386.8 548C1421.7 555.2 1449 564.7 1447.9 569.2C1446.8 573.6 1417.5 571.4 1382.6 564.1C1347.8 556.8 1320.4 547.3 1321.5 542.9Z" fill="url(#paint22_linear)"/>
<path opacity="0.8" d="M1326.7 588.7C1327.2 583.9 1360.5 581.6 1401.1 583.6C1441.6 585.6 1474.1 591.1 1473.5 595.9C1472.9 600.7 1439.7 603 1399.1 601C1358.5 599 1326.1 593.5 1326.7 588.7Z" fill="url(#paint23_linear)"/>
<path opacity="0.8" d="M1354.3 637.6C1354.3 632.8 1387.7 626.7 1428.8 623.9C1469.9 621.1 1503.3 622.8 1503.2 627.6C1503.2 632.4 1469.8 638.5 1428.7 641.3C1387.6 644.1 1354.3 642.4 1354.3 637.6Z" fill="url(#paint24_linear)"/>
<path opacity="0.8" d="M1419.6 317.6C1416.4 315.6 1400.6 334.8 1384.5 360.6C1368.4 386.4 1357.9 408.9 1361.1 410.9C1364.3 412.9 1380.1 393.7 1396.2 367.9C1412.3 342.1 1422.8 319.6 1419.6 317.6Z" fill="url(#paint25_linear)"/>
<path opacity="0.8" d="M1402.1 280.8C1398.8 278.8 1385.1 295.6 1371.5 318.3C1357.9 341 1349.5 360.9 1352.8 362.9C1356.1 364.9 1369.8 348.1 1383.4 325.4C1397 302.7 1405.3 282.8 1402.1 280.8Z" fill="url(#paint26_linear)"/>
<path opacity="0.8" d="M1399.8 234.7C1396.5 232.8 1383.1 249.9 1370 272.9C1356.9 295.9 1348.9 316 1352.3 317.9C1355.6 319.8 1369 302.7 1382.1 279.7C1395.2 256.7 1403.1 236.6 1399.8 234.7Z" fill="url(#paint27_linear)"/>
<path opacity="0.8" d="M1400.5 182.1C1397.1 180.4 1384.8 197 1373 219.3C1361.2 241.6 1354.4 261 1357.8 262.8C1361.2 264.6 1373.5 247.9 1385.3 225.6C1397.1 203.3 1403.9 183.9 1400.5 182.1Z" fill="url(#paint28_linear)"/>
<path opacity="0.8" d="M1374.7 124.2C1370.8 123.9 1365.1 143.7 1361.9 168.4C1358.7 193.1 1359.3 213.2 1363.1 213.5C1367 213.8 1372.7 194 1375.9 169.3C1379.1 144.6 1378.6 124.5 1374.7 124.2Z" fill="url(#paint29_linear)"/>
<path opacity="0.8" d="M1438.3 347.6C1435.1 345.5 1418.3 365.5 1400.7 392.2C1383.1 418.9 1371.5 442.3 1374.7 444.4C1377.9 446.5 1394.7 426.5 1412.3 399.8C1429.9 373.1 1441.5 349.7 1438.3 347.6Z" fill="url(#paint30_linear)"/>
<path opacity="0.8" d="M1465.1 377.4C1461.9 375.4 1443.9 398.3 1425.1 428.5C1406.3 458.7 1393.6 484.9 1396.9 486.9C1400.1 488.9 1418.1 466 1436.9 435.8C1455.7 405.5 1468.4 379.4 1465.1 377.4Z" fill="url(#paint31_linear)"/>
<path opacity="0.8" d="M1498.1 411.5C1495.1 409.2 1474.2 431.9 1451.5 462.3C1428.8 492.7 1412.8 519.2 1415.9 521.5C1419 523.8 1439.8 501.1 1462.5 470.7C1485.2 440.3 1501.1 413.8 1498.1 411.5Z" fill="url(#paint32_linear)"/>
<path opacity="0.8" d="M1529.5 453.6C1526 451.1 1505.3 474.1 1483.1 505.1C1460.9 536.1 1445.8 563.3 1449.2 565.8C1452.6 568.3 1473.4 545.3 1495.6 514.3C1517.8 483.3 1533 456.2 1529.5 453.6Z" fill="url(#paint33_linear)"/>
<path opacity="0.8" d="M1578.9 477.2C1575.5 474.2 1550.2 498.3 1522.4 531C1494.6 563.8 1474.8 592.8 1478.2 595.8C1481.6 598.8 1506.9 574.7 1534.7 542C1562.6 509.2 1582.3 480.2 1578.9 477.2Z" fill="url(#paint34_linear)"/>
<path opacity="0.8" d="M1596.6 496.9C1592.9 494.3 1569.8 521 1545 556.6C1520.2 592.2 1503.1 623.1 1506.8 625.8C1510.5 628.4 1533.6 601.7 1558.4 566.1C1583.2 530.5 1600.3 499.5 1596.6 496.9Z" fill="url(#paint35_linear)"/>
</g>
<path d="M1645 161.6L1850.4 162.9" stroke="#5343C6" stroke-width="4" stroke-linecap="round" stroke-linejoin="round"/>
<path d="M1645 183H1792" stroke="#5343C6" stroke-width="4" stroke-linecap="round" stroke-linejoin="round"/>
<path d="M1642.7 357.4C1707.9 337.8 1647.9 217.3 1587.7 234.7C1573.8 238.7 1556.6 255.4 1552.5 269.8C1552.1 271.3 1551.6 272.8 1551.2 274.3C1547.4 287.3 1544.1 298.7 1544.3 308C1539.5 314.9 1530.3 322.1 1513 330.2C1485.3 343.1 1511.1 386 1522.2 404.4C1523.3 406.3 1524.3 407.9 1525.1 409.2C1525.5 410 1526 410.7 1526.4 411.5C1535.1 426.5 1546.1 445.3 1515.7 488.8C1462.3 551.2 1498.9 624.5 1608.3 614C1652.4 609.8 1720.7 545.9 1703.9 495.9C1701.9 489.9 1694 478.3 1684.3 464C1670.1 443.2 1652 416.7 1642.8 393.5C1640.2 381.9 1641.1 369.9 1642.7 357.4Z" fill="url(#paint36_linear)"/>
<path d="M1684.3 665.3C1687.2 659.5 1685.5 665.5 1688.8 657.6C1706.8 655.8 1722.1 668.4 1722.1 668.4C1722.1 668.4 1743.4 677 1744.2 681.5C1745 686 1719.7 675.2 1719.7 675.2C1719.7 675.2 1746.9 692.2 1746.1 696.8C1745 701.8 1715.3 682.3 1715.3 682.3C1715.3 682.3 1747.6 706.2 1743.2 710.2C1738.8 714.2 1711.8 694.1 1711.8 694.1C1711.8 694.1 1738 717.6 1734.3 721.1C1730.6 724.6 1689.4 694.8 1689.4 694.8C1692.2 709.9 1681.6 710.7 1681.6 710.7L1677 673.4C1677.1 673.5 1682.8 668 1684.3 665.3Z" fill="#F7D5D6"/>
<path d="M1354 189.8C1348.8 193.5 1353 189.1 1346.5 194.3C1329.9 187.2 1324.4 168 1324.4 168C1324.4 168 1307.8 150.9 1309.1 146.6C1310.4 142.2 1328.6 161.9 1328.6 161.9C1328.6 161.9 1311.7 135.9 1314.4 132.2C1317.6 128.3 1336.7 157.8 1336.7 157.8C1336.7 157.8 1317.5 123.3 1323.2 121.9C1328.9 120.5 1343.1 151.2 1343.1 151.2C1343.1 151.2 1331.1 117.9 1336 116.7C1340.9 115.4 1363.1 161.4 1363.1 161.4C1367.6 146.8 1377.2 151.2 1377.2 151.2L1364.1 186.1C1364.1 186.1 1356.6 188.1 1354 189.8Z" fill="#F7D5D6"/>
<path d="M1587.5 250.8C1579.4 250.1 1565.1 251 1553.1 272.4C1540.6 288.7 1536.7 300.1 1539 321.1C1539.5 325.6 1541.5 331.6 1544.5 335.7C1544.1 340.8 1538.7 352.4 1531.1 357.3C1519.3 364.8 1568.9 375.3 1568.9 375.3C1570.8 364.3 1573 350.2 1579.5 345.7C1584.1 344.3 1586.9 343.2 1591 341.3C1602.5 336 1609.8 322.8 1617.3 312.8C1621.5 305.2 1626.1 298.6 1625.2 287.7C1623.6 267.5 1608 255.6 1587.5 250.8Z" fill="#F7D5D6"/>
<path d="M1502.1 384.1C1503.7 364.6 1516.6 356.9 1534.8 358.4C1555.4 360.1 1591.9 369.7 1589.4 387.2C1587.8 406.7 1558 432.5 1537.9 430.9C1517.2 429.2 1500.5 403.6 1502.1 384.1Z" fill="#F7D5D6"/>
<path d="M1558.3 296.1C1559.5 296.1 1567.2 295.9 1571.9 292.7C1577.4 289 1578.6 288.4 1570.9 293.7C1566.6 296.6 1559.5 297.3 1559.5 297.3C1559.5 297.3 1559.3 298.8 1559.4 299.7C1559.6 300.6 1560.5 302.1 1560.5 302.1L1562.8 305.7C1562.8 305.7 1558.9 303.3 1558.2 300.8C1557.6 299.1 1557.1 296.1 1558.3 296.1Z" fill="#F5BABB"/>
<path d="M1580.9 338.8C1580.9 338.8 1569.1 343.5 1556.5 343.1C1556.5 343.1 1566.9 347.6 1576.6 346.1C1577.2 346.4 1578.1 341.5 1580.9 338.8Z" fill="#F5BABB"/>
<path d="M1612.2 304.7C1613.3 304 1612.3 298.9 1607.8 293.2C1602.2 288.2 1594.8 286.5 1593.7 287.2C1592.6 288.6 1598.5 290.5 1603.1 294.7C1606.7 300.3 1610.2 305.3 1612.2 304.7Z" fill="#04172D"/>
<path d="M1556.5 267.2C1556.5 266.1 1560 265.4 1565.9 267.4C1571.7 270.5 1575.6 276.1 1575.6 277.2C1575.1 278.6 1571.3 274.2 1566.4 271.6C1560.5 269.2 1556.9 269.1 1556.5 267.2Z" fill="#04172D"/>
<path d="M1617 312.3C1617 312.3 1622.4 308.7 1625.8 317.1C1618.6 331.4 1608.1 324.6 1608.1 324.6L1617 312.3Z" fill="#F7D5D6"/>
<path d="M1617 312.3C1617 312.3 1622.4 308.7 1625.8 317.1C1618.6 331.4 1608.1 324.6 1608.1 324.6L1617 312.3Z" fill="#F7D5D6" fill-opacity="0.2"/>
<path d="M1556.1 311.1C1556.1 311.1 1560.6 312.4 1561.8 314C1563 315.6 1564.5 317.2 1566.7 319.2C1563.2 318.3 1561.2 317.5 1555.9 313.5C1550.9 309.8 1549.3 309.1 1547 305.6C1548.7 306.3 1550.7 306.7 1552.2 307.2C1554.1 307.9 1556.1 311.1 1556.1 311.1Z" fill="#D177A3"/>
<path d="M1589.3 304C1592.8 308.3 1604.5 304.7 1604.5 304.7C1604.5 304.7 1592.2 305.7 1588.9 301.8C1588.5 301.3 1588.2 300.7 1588 300.1C1587.8 296.5 1589.2 292.6 1589.2 292.6C1589.2 292.6 1587.1 296.9 1588 300.1C1588.1 301.6 1588.5 303 1589.3 304Z" fill="#04172D"/>
<path d="M1604.5 304.7V304.6C1604.6 304.6 1604.7 304.6 1604.7 304.7C1604.7 304.8 1604.7 304.8 1604.6 304.9L1604.5 304.7ZM1589.3 304L1589.2 304.1L1589.3 304ZM1589.3 292.6L1589.2 292.5C1589.2 292.4 1589.3 292.4 1589.4 292.4C1589.5 292.4 1589.5 292.5 1589.5 292.6H1589.3ZM1588.9 301.8L1589 301.7L1588.9 301.8ZM1604.5 304.7C1604.6 304.8 1604.6 304.8 1604.6 304.8H1604.5C1604.4 304.8 1604.3 304.9 1604.1 304.9C1603.8 305 1603.3 305.1 1602.7 305.3C1601.5 305.6 1600 305.9 1598.3 306.1C1596.6 306.3 1594.8 306.3 1593.2 306.1C1591.6 305.8 1590.2 305.2 1589.3 304.1L1589.5 303.9C1590.3 304.9 1591.7 305.5 1593.2 305.8C1594.8 306.1 1596.5 306 1598.2 305.8C1599.9 305.6 1601.4 305.3 1602.6 305C1603.2 304.9 1603.6 304.7 1604 304.6C1604.2 304.6 1604.3 304.5 1604.4 304.5H1604.5C1604.4 304.5 1604.4 304.5 1604.5 304.7ZM1589.2 304.1C1588.3 303 1588 301.6 1587.9 300.1H1588.2C1588.3 301.6 1588.6 302.9 1589.4 303.9L1589.2 304.1ZM1587.9 300.1C1587.8 298.3 1588.1 296.4 1588.4 295C1588.6 294.3 1588.7 293.7 1588.9 293.2C1589 293 1589 292.8 1589.1 292.7C1589.1 292.6 1589.1 292.6 1589.1 292.6C1589.1 292.6 1589.1 292.6 1589.2 292.6C1589.3 292.7 1589.3 292.7 1589.3 292.7C1589.3 292.7 1589.3 292.8 1589.2 292.8C1589.2 292.9 1589.1 293.1 1589 293.3C1588.9 293.7 1588.7 294.3 1588.5 295C1588.2 296.4 1587.9 298.3 1588 300.1H1587.9ZM1589.3 292.6C1589.4 292.7 1589.4 292.7 1589.4 292.7C1589.4 292.7 1589.4 292.8 1589.3 292.8C1589.2 292.9 1589.2 293.1 1589.1 293.3C1588.9 293.7 1588.7 294.4 1588.5 295.1C1588.1 296.6 1587.8 298.4 1588.2 300L1587.9 300.1C1587.4 298.4 1587.7 296.5 1588.2 295C1588.4 294.3 1588.6 293.6 1588.8 293.2C1588.9 293 1589 292.8 1589 292.7C1589 292.6 1589.1 292.6 1589.1 292.6C1589.1 292.6 1589.1 292.5 1589.3 292.6ZM1588.2 300.1C1588.4 300.7 1588.6 301.3 1589.1 301.7L1588.9 301.9C1588.5 301.4 1588.2 300.8 1588 300.2L1588.2 300.1ZM1589 301.7C1589.8 302.6 1591.1 303.3 1592.7 303.7C1594.3 304.1 1596.1 304.4 1597.9 304.5C1599.6 304.6 1601.3 304.6 1602.5 304.6C1603.1 304.6 1603.6 304.6 1603.9 304.5C1604.1 304.5 1604.2 304.5 1604.3 304.5C1604.4 304.5 1604.4 304.5 1604.4 304.5C1604.4 304.5 1604.4 304.5 1604.4 304.6C1604.4 304.7 1604.4 304.7 1604.4 304.7H1604.3C1604.2 304.7 1604.1 304.7 1603.9 304.7C1603.6 304.7 1603.1 304.7 1602.5 304.8C1601.3 304.8 1599.7 304.8 1597.9 304.7C1596.1 304.6 1594.3 304.3 1592.7 303.9C1591.1 303.4 1589.7 302.8 1588.8 301.8L1589 301.7Z" fill="#04172D"/>
<path d="M1556.6 283.2C1553 279.8 1556.5 273.4 1556.5 273.4C1556.5 273.4 1554.8 280.4 1558 283.6C1558.4 284 1559 284.3 1559.6 284.5C1563.3 284.9 1568.1 283.3 1568.1 283.3C1568.1 283.3 1562.9 285.4 1559.6 284.5C1558.3 284.2 1557.3 283.9 1556.6 283.2Z" fill="#04172D"/>
<path d="M1556.4 273.4H1556.5C1556.5 273.3 1556.5 273.3 1556.4 273.2C1556.3 273.2 1556.2 273.2 1556.2 273.3L1556.4 273.4ZM1556.6 283.2L1556.5 283.3L1556.6 283.2ZM1568 283.2L1568.1 283.3C1568.2 283.3 1568.2 283.2 1568.2 283.1C1568.2 283 1568.1 283 1568 283V283.2ZM1558 283.5L1558.1 283.4L1558 283.5ZM1556.4 273.4C1556.3 273.3 1556.3 273.3 1556.3 273.3C1556.3 273.3 1556.3 273.3 1556.3 273.4C1556.3 273.4 1556.2 273.5 1556.2 273.6C1556.1 273.8 1556 274.1 1555.9 274.4C1555.6 275.1 1555.3 276 1555.1 277C1554.7 279 1554.7 281.6 1556.6 283.3L1556.8 283.1C1555.1 281.5 1555 279.1 1555.4 277C1555.6 276 1555.9 275.1 1556.2 274.4C1556.3 274.1 1556.5 273.8 1556.6 273.6C1556.6 273.5 1556.7 273.4 1556.7 273.4C1556.7 273.4 1556.7 273.4 1556.7 273.3C1556.6 273.4 1556.6 273.4 1556.4 273.4ZM1556.4 283.3C1557.2 284 1558.3 284.4 1559.4 284.5V284.2C1558.2 284.1 1557.2 283.7 1556.5 283.1L1556.4 283.3ZM1559.5 284.5C1561.3 284.7 1563.5 284.4 1565.2 284.1C1566 283.9 1566.8 283.7 1567.3 283.6C1567.6 283.5 1567.8 283.5 1567.9 283.4C1568 283.4 1568 283.4 1568.1 283.3C1568.1 283.3 1568.1 283.3 1568 283.2C1567.9 283.1 1567.9 283.1 1567.9 283.1C1567.9 283.1 1567.8 283.1 1567.7 283.2C1567.6 283.2 1567.4 283.3 1567.1 283.4C1566.6 283.5 1565.9 283.7 1565 283.9C1563.3 284.2 1561.2 284.5 1559.4 284.3L1559.5 284.5ZM1568 283.2C1567.9 283.1 1567.9 283.1 1567.9 283.1C1567.9 283.1 1567.8 283.1 1567.7 283.2C1567.6 283.3 1567.3 283.3 1567.1 283.4C1566.6 283.6 1565.8 283.8 1565 284C1563.3 284.4 1561.2 284.7 1559.6 284.2L1559.5 284.5C1561.2 285 1563.3 284.7 1565 284.3C1565.9 284.1 1566.6 283.9 1567.2 283.7C1567.5 283.6 1567.7 283.5 1567.8 283.5C1567.9 283.5 1567.9 283.4 1568 283.4C1568.1 283.4 1568.1 283.4 1568 283.2ZM1559.6 284.2C1559 284 1558.5 283.8 1558.1 283.4L1557.9 283.6C1558.3 284 1558.9 284.3 1559.5 284.5L1559.6 284.2ZM1558.1 283.4C1556.5 281.9 1556.1 279.4 1556.2 277.2C1556.2 276.1 1556.3 275.2 1556.4 274.5C1556.5 274.1 1556.5 273.9 1556.6 273.7C1556.6 273.6 1556.6 273.5 1556.7 273.5C1556.7 273.5 1556.7 273.5 1556.7 273.4C1556.7 273.4 1556.7 273.4 1556.6 273.4C1556.5 273.4 1556.5 273.4 1556.5 273.4C1556.5 273.4 1556.5 273.4 1556.5 273.5C1556.5 273.6 1556.5 273.6 1556.4 273.7C1556.4 273.9 1556.3 274.2 1556.3 274.5C1556.2 275.2 1556.1 276.2 1556.1 277.3C1556.1 279.5 1556.5 282.1 1558.1 283.7V283.4Z" fill="#04172D"/>
<g opacity="0.2">
<path opacity="0.2" d="M1556.07 295.084C1557.59 293.56 1556.39 289.889 1553.38 286.884C1550.37 283.878 1546.7 282.677 1545.18 284.201C1543.65 285.725 1544.86 289.397 1547.87 292.402C1550.88 295.407 1554.55 296.608 1556.07 295.084Z" fill="#EB5E84"/>
</g>
<g opacity="0.2">
<path opacity="0.2" d="M1595.18 322.988C1596.88 320.958 1594.63 316.26 1590.15 312.495C1585.66 308.729 1580.65 307.323 1578.94 309.352C1577.24 311.382 1579.49 316.08 1583.97 319.846C1588.45 323.611 1593.47 325.018 1595.18 322.988Z" fill="#EB5E84"/>
</g>
<path d="M1220.6 878.3C1220.6 878.3 1223.8 907.9 1216 939.4C1210 963.7 1179.3 1007.2 1175.2 1018.5C1167.4 1030.5 1195.1 1023.2 1203.8 1018.5C1212.5 1013.7 1218.1 1004.7 1225.8 998.1C1234.3 990.9 1246.1 980.9 1248 975.1C1251.8 963.9 1244.4 958 1246.3 948.8C1249.4 933.2 1266.3 880 1266.3 880L1220.6 878.3Z" fill="#F7D5D6"/>
<path d="M1181.2 777.6C1181.2 777.6 1174 808.4 1161.7 839.3C1152.4 862.5 1115.4 895 1108.9 905.2C1098.8 915.3 1127.1 912.5 1136.6 909.7C1146.1 906.8 1153.7 900.6 1162.6 895.7C1172.4 890.4 1181.1 885.7 1184.2 880.4C1190.2 870.2 1185.5 863.3 1189.2 854.6C1195.5 840 1219.3 790.4 1219.3 790.4L1181.2 777.6Z" fill="#F7D5D6"/>
<path d="M1491.9 619.9L1488.5 583.1C1488.5 583.1 1278.4 576.8 1233.7 603.1C1201.3 635.9 1180.4 778.8 1180.4 778.8L1217.7 794.4C1217.7 794.4 1259.5 704.4 1263.3 679.6C1267.1 654.8 1357 669.5 1422.7 671.1C1482.4 651.8 1491.9 619.9 1491.9 619.9Z" fill="url(#paint37_radial)"/>
<path d="M1450.9 713C1456.5 712.8 1462.7 712.3 1469.3 711.6C1503.7 707.9 1538.6 685.4 1552.7 665.7C1569 642.9 1569.6 615.7 1570.3 585.9C1570.7 569.7 1571.1 552.7 1574 535.2L1471.6 538.5C1471.6 538.5 1466.8 561.1 1459.8 570.3C1455.2 576.3 1449.3 583.9 1443.2 591.6C1379.4 619.5 1262.3 673 1235.1 702.3C1210.3 748.6 1220.3 879.7 1220.3 879.7L1267.3 883.6C1267.3 883.6 1290 786.1 1290.8 765.8C1292.3 732 1416.5 716.6 1450.9 713Z" fill="url(#paint38_radial)"/>
<path d="M1521.3 357.3C1515.7 353.8 1472.5 326 1437.8 291.1C1430 283.2 1421.4 267.1 1412.2 249.7C1397.1 221.4 1380.4 189.9 1362.5 186C1359.8 185.4 1349.6 188.5 1348.2 190.5C1326.9 219.3 1377.1 300.1 1391.9 313.5C1404 330.7 1448.3 392.7 1471.8 414.7C1459.2 460.3 1447.7 569.8 1449.3 586C1450.9 602.2 1482.2 624.8 1499.9 628.9C1519.7 633.5 1550 637.1 1566.9 622C1579.5 610.8 1585.8 567.9 1588.9 535.3C1590 538.3 1591.2 541.3 1592.5 544.4C1599.4 560.3 1646.7 663.5 1674.9 672.4C1682.1 674.7 1694.4 668.7 1697.7 662C1703.9 649.2 1692.9 626.9 1678.9 598.4C1669.5 579.2 1658.7 557.2 1650.8 533.4C1647.7 512.9 1644.3 499.1 1641.4 487.2C1638.8 476.4 1636.5 467.2 1635.1 455.8C1631.9 428.8 1627.1 411.3 1622.4 399.9C1622.2 398.9 1621.9 397.9 1621.6 397C1620.7 394.7 1619.5 392.6 1618 390.7C1612.5 381.1 1608.2 379.4 1608.2 379.4C1607 379.6 1605.8 379.7 1604.6 379.9C1593.6 373.9 1581.8 371.5 1581.8 371.5C1581.8 371.5 1553.8 403 1525.8 385C1502.7 370.2 1530.6 358.1 1530.6 358.1L1521.3 357.3Z" fill="url(#paint39_linear)"/>
<path d="M1571.4 353.5C1555.8 384.9 1602.1 417 1615.4 428C1629.9 439.9 1650.2 452.9 1640 511.6C1617 595.4 1681.1 654.3 1777.2 600.4C1816 578.6 1842.6 493.4 1806.4 449.9C1795.6 437 1747.6 398.6 1717 365.7C1702.3 343.6 1700.4 314.4 1688.3 286.9C1674.3 255.2 1650 234 1621.2 236.8C1587.7 240.1 1579.1 242.2 1578.2 272.4C1577.2 298.3 1599.8 296.3 1571.4 353.5Z" fill="url(#paint40_linear)"/>
<path d="M1583.3 479.4C1583.3 479.4 1584.7 528.6 1587.3 536.3C1590.6 546.1 1581.5 609 1565.3 624.2C1546.5 641.8 1554.6 581.6 1558.6 554.6C1563.8 536.6 1583.3 479.4 1583.3 479.4Z" fill="url(#paint41_linear)"/>
<path d="M1522.1 376.2C1520.6 369.5 1530.2 357.8 1530.2 357.8L1526.1 357.5C1526.1 357.5 1510.2 368.7 1515.6 384C1523.5 406.7 1574.9 387.1 1574.9 387.1L1571.3 380.3C1571.2 380.2 1526.9 398 1522.1 376.2Z" fill="url(#paint42_linear)"/>
<path d="M1563.8 318.7L1564.9 319.4L1563.9 320.2L1563.3 319.4C1563.9 320.2 1563.9 320.2 1563.9 320.2C1563.9 320.2 1563.9 320.2 1563.8 320.3C1563.7 320.3 1563.7 320.4 1563.6 320.5C1563.4 320.7 1563.1 320.9 1562.7 321.1C1561.9 321.6 1560.9 322.1 1559.5 322.5C1556.8 323.3 1553.1 323.4 1549.2 320.7C1546 318.5 1545.4 315.2 1545.6 312.7C1545.7 311.4 1546 310.3 1546.3 309.5C1546.4 309.1 1546.6 308.8 1546.7 308.5C1546.8 308.4 1546.8 308.3 1546.8 308.2V308.1C1546.8 308.1 1546.8 308.1 1547.7 308.5L1546.8 308.1L1547.3 307.1L1548.3 307.8L1563.8 318.7Z" fill="white" stroke="#D177A3" stroke-width="2"/>
<path d="M1819 426C1849.38 426 1874 401.6 1874 371.5C1874 341.4 1849.38 317 1819 317C1788.62 317 1764 341.4 1764 371.5C1764 401.6 1788.62 426 1819 426Z" fill="url(#paint43_linear)"/>
<path d="M1842.5 371.6L1809.8 349.2C1809.5 349 1809 348.9 1808.6 349.1C1808.2 349.3 1808 349.7 1808 350.1V394.9C1808 395.3 1808.2 395.7 1808.6 395.9C1808.8 396 1808.9 396 1809.1 396C1809.3 396 1809.5 395.9 1809.7 395.8L1842.4 373.4C1842.7 373.2 1842.9 372.8 1842.9 372.5C1843 372.1 1842.8 371.8 1842.5 371.6Z" fill="#5343C6"/>
<defs>
<linearGradient id="paint0_linear" x1="54.0892" y1="985.124" x2="341.255" y2="1033.56" gradientUnits="userSpaceOnUse">
<stop stop-color="#4EAF9D"/>
<stop offset="1" stop-color="#425479"/>
</linearGradient>
<radialGradient id="paint1_radial" cx="0" cy="0" r="1" gradientUnits="userSpaceOnUse" gradientTransform="translate(61.663 994.47) rotate(-149.435) scale(257.787 237.459)">
<stop stop-color="#425479"/>
<stop offset="1" stop-color="#425479" stop-opacity="0"/>
</radialGradient>
<linearGradient id="paint2_linear" x1="1101.47" y1="-50.9365" x2="1784.45" y2="783.348" gradientUnits="userSpaceOnUse">
<stop stop-color="#29344C"/>
<stop offset="1" stop-color="#5343C6"/>
</linearGradient>
<linearGradient id="paint3_linear" x1="1258.22" y1="590.428" x2="1403.9" y2="349.604" gradientUnits="userSpaceOnUse">
<stop stop-color="#4EAF9D"/>
<stop offset="1" stop-color="#425479"/>
</linearGradient>
<radialGradient id="paint4_radial" cx="0" cy="0" r="1" gradientUnits="userSpaceOnUse" gradientTransform="translate(1122.79 731.959) rotate(-174.496) scale(249.144 229.497)">
<stop stop-color="#425479"/>
<stop offset="1" stop-color="#425479" stop-opacity="0"/>
</radialGradient>
<linearGradient id="paint5_linear" x1="1679.07" y1="704.076" x2="1416.69" y2="656.731" gradientUnits="userSpaceOnUse">
<stop stop-color="#352D83"/>
<stop offset="0.7501" stop-color="#30277B"/>
</linearGradient>
<linearGradient id="paint6_linear" x1="722.799" y1="-75.3119" x2="1263.74" y2="307.192" gradientUnits="userSpaceOnUse">
<stop stop-color="#CBE3F7"/>
<stop offset="0.8749" stop-color="white"/>
</linearGradient>
<linearGradient id="paint7_linear" x1="1002.83" y1="163.838" x2="877.661" y2="52.8639" gradientUnits="userSpaceOnUse">
<stop stop-color="#5343C6"/>
<stop offset="1" stop-color="#71AAFF"/>
</linearGradient>
<linearGradient id="paint8_linear" x1="1528.06" y1="439.113" x2="1248" y2="467.137" gradientUnits="userSpaceOnUse">
<stop stop-color="#4EAF9D"/>
<stop offset="1" stop-color="#425479"/>
</linearGradient>
<radialGradient id="paint9_radial" cx="0" cy="0" r="1" gradientUnits="userSpaceOnUse" gradientTransform="translate(1520.16 447.654) rotate(-26.7034) scale(249.144 229.497)">
<stop stop-color="#425479"/>
<stop offset="1" stop-color="#425479" stop-opacity="0"/>
</radialGradient>
<linearGradient id="paint10_linear" x1="1704.26" y1="34.5689" x2="1506.87" y2="587.397" gradientUnits="userSpaceOnUse">
<stop stop-color="#44CEDB"/>
<stop offset="1" stop-color="#4EAF9D"/>
</linearGradient>
<linearGradient id="paint11_linear" x1="1693.62" y1="29.553" x2="1496.23" y2="582.381" gradientUnits="userSpaceOnUse">
<stop stop-color="#44CEDB"/>
<stop offset="1" stop-color="#29344C"/>
</linearGradient>
<linearGradient id="paint12_linear" x1="2018.93" y1="233.597" x2="1578.22" y2="258.147" gradientUnits="userSpaceOnUse">
<stop stop-color="#425479" stop-opacity="0"/>
<stop offset="1" stop-color="#425479" stop-opacity="0.46"/>
</linearGradient>
<linearGradient id="paint13_linear" x1="1145.66" y1="232.669" x2="1238.24" y2="232.669" gradientUnits="userSpaceOnUse">
<stop stop-color="#5343C6"/>
<stop offset="1" stop-color="#80A3FF"/>
</linearGradient>
<linearGradient id="paint14_linear" x1="1621.06" y1="121.8" x2="2089.17" y2="339.55" gradientUnits="userSpaceOnUse">
<stop stop-color="#CBE3F7"/>
<stop offset="1" stop-color="#9283FF"/>
</linearGradient>
<linearGradient id="paint15_linear" x1="1320.22" y1="378.964" x2="1394.85" y2="449.013" gradientUnits="userSpaceOnUse">
<stop offset="0.1094" stop-color="#0FDDB0"/>
<stop offset="1" stop-color="#236941"/>
</linearGradient>
<linearGradient id="paint16_linear" x1="1322.02" y1="331.611" x2="1380.15" y2="399.498" gradientUnits="userSpaceOnUse">
<stop offset="0.1094" stop-color="#0FDDB0"/>
<stop offset="1" stop-color="#236941"/>
</linearGradient>
<linearGradient id="paint17_linear" x1="1327.55" y1="282.022" x2="1375.47" y2="358.301" gradientUnits="userSpaceOnUse">
<stop offset="0.1094" stop-color="#0FDDB0"/>
<stop offset="1" stop-color="#236941"/>
</linearGradient>
<linearGradient id="paint18_linear" x1="1336.87" y1="230.768" x2="1374.8" y2="308.502" gradientUnits="userSpaceOnUse">
<stop offset="0.1094" stop-color="#0FDDB0"/>
<stop offset="1" stop-color="#236941"/>
</linearGradient>
<linearGradient id="paint19_linear" x1="1321.94" y1="423.564" x2="1415.77" y2="475.711" gradientUnits="userSpaceOnUse">
<stop offset="0.1094" stop-color="#0FDDB0"/>
<stop offset="1" stop-color="#236941"/>
</linearGradient>
<linearGradient id="paint20_linear" x1="1337.42" y1="464.644" x2="1443.28" y2="520.364" gradientUnits="userSpaceOnUse">
<stop offset="0.1094" stop-color="#0FDDB0"/>
<stop offset="1" stop-color="#236941"/>
</linearGradient>
<linearGradient id="paint21_linear" x1="1351.72" y1="509.014" x2="1473.07" y2="549.374" gradientUnits="userSpaceOnUse">
<stop offset="0.1094" stop-color="#0FDDB0"/>
<stop offset="1" stop-color="#236941"/>
</linearGradient>
<linearGradient id="paint22_linear" x1="1384.77" y1="555.92" x2="1509.58" y2="588.105" gradientUnits="userSpaceOnUse">
<stop offset="0.1094" stop-color="#0FDDB0"/>
<stop offset="1" stop-color="#236941"/>
</linearGradient>
<linearGradient id="paint23_linear" x1="1400.03" y1="592.312" x2="1545.82" y2="608.699" gradientUnits="userSpaceOnUse">
<stop offset="0.1094" stop-color="#0FDDB0"/>
<stop offset="1" stop-color="#236941"/>
</linearGradient>
<linearGradient id="paint24_linear" x1="1428.7" y1="632.63" x2="1577.6" y2="633.24" gradientUnits="userSpaceOnUse">
<stop offset="0.1094" stop-color="#0FDDB0"/>
<stop offset="1" stop-color="#236941"/>
</linearGradient>
<linearGradient id="paint25_linear" x1="1390.37" y1="364.189" x2="1332.04" y2="457.64" gradientUnits="userSpaceOnUse">
<stop offset="0.2813" stop-color="#1BBD85"/>
<stop offset="1" stop-color="#3A684D"/>
</linearGradient>
<linearGradient id="paint26_linear" x1="1377.34" y1="321.805" x2="1328.33" y2="404.106" gradientUnits="userSpaceOnUse">
<stop offset="0.2813" stop-color="#1BBD85"/>
<stop offset="1" stop-color="#3A684D"/>
</linearGradient>
<linearGradient id="paint27_linear" x1="1376.08" y1="276.236" x2="1329.2" y2="359.753" gradientUnits="userSpaceOnUse">
<stop offset="0.2813" stop-color="#1BBD85"/>
<stop offset="1" stop-color="#3A684D"/>
</linearGradient>
<linearGradient id="paint28_linear" x1="1379.13" y1="222.506" x2="1337.46" y2="303.71" gradientUnits="userSpaceOnUse">
<stop offset="0.2813" stop-color="#1BBD85"/>
<stop offset="1" stop-color="#3A684D"/>
</linearGradient>
<linearGradient id="paint29_linear" x1="1368.96" y1="168.9" x2="1362.91" y2="258.519" gradientUnits="userSpaceOnUse">
<stop offset="0.2813" stop-color="#1BBD85"/>
<stop offset="1" stop-color="#3A684D"/>
</linearGradient>
<linearGradient id="paint30_linear" x1="1406.62" y1="396.065" x2="1342.85" y2="492.744" gradientUnits="userSpaceOnUse">
<stop offset="0.2813" stop-color="#1BBD85"/>
<stop offset="1" stop-color="#3A684D"/>
</linearGradient>
<linearGradient id="paint31_linear" x1="1430.99" y1="432.141" x2="1362.95" y2="541.778" gradientUnits="userSpaceOnUse">
<stop offset="0.2813" stop-color="#1BBD85"/>
<stop offset="1" stop-color="#3A684D"/>
</linearGradient>
<linearGradient id="paint32_linear" x1="1456.99" y1="466.475" x2="1373.45" y2="575.398" gradientUnits="userSpaceOnUse">
<stop offset="0.2813" stop-color="#1BBD85"/>
<stop offset="1" stop-color="#3A684D"/>
</linearGradient>
<linearGradient id="paint33_linear" x1="1489.42" y1="509.811" x2="1408.16" y2="621.331" gradientUnits="userSpaceOnUse">
<stop offset="0.2813" stop-color="#1BBD85"/>
<stop offset="1" stop-color="#3A684D"/>
</linearGradient>
<linearGradient id="paint34_linear" x1="1528.63" y1="536.461" x2="1425.33" y2="652.81" gradientUnits="userSpaceOnUse">
<stop offset="0.2813" stop-color="#1BBD85"/>
<stop offset="1" stop-color="#3A684D"/>
</linearGradient>
<linearGradient id="paint35_linear" x1="1551.71" y1="561.411" x2="1461.08" y2="689.634" gradientUnits="userSpaceOnUse">
<stop offset="0.2813" stop-color="#1BBD85"/>
<stop offset="1" stop-color="#3A684D"/>
</linearGradient>
<linearGradient id="paint36_linear" x1="2074.6" y1="535.599" x2="1585.17" y2="423.642" gradientUnits="userSpaceOnUse">
<stop stop-color="#2D4358"/>
<stop offset="0.3332" stop-color="#2C373F"/>
<stop offset="1" stop-color="#04172D"/>
</linearGradient>
<radialGradient id="paint37_radial" cx="0" cy="0" r="1" gradientUnits="userSpaceOnUse" gradientTransform="translate(1340.83 657.761) rotate(169.451) scale(275.528 131.228)">
<stop stop-color="#29344C"/>
<stop offset="1" stop-color="#202F51"/>
</radialGradient>
<radialGradient id="paint38_radial" cx="0" cy="0" r="1" gradientUnits="userSpaceOnUse" gradientTransform="translate(1425.43 731.062) rotate(-171.01) scale(353.422 213.837)">
<stop stop-color="#29344C"/>
<stop offset="1" stop-color="#425479"/>
</radialGradient>
<linearGradient id="paint39_linear" x1="1396.18" y1="180.338" x2="1584.44" y2="602.319" gradientUnits="userSpaceOnUse">
<stop stop-color="#FF9EB3"/>
<stop offset="1" stop-color="#E34370"/>
</linearGradient>
<linearGradient id="paint40_linear" x1="1868.26" y1="498.553" x2="1603.03" y2="407.692" gradientUnits="userSpaceOnUse">
<stop stop-color="#2D4358"/>
<stop offset="1" stop-color="#04172D"/>
</linearGradient>
<linearGradient id="paint41_linear" x1="1614.06" y1="574.264" x2="1501.64" y2="519.773" gradientUnits="userSpaceOnUse">
<stop stop-color="#EF345C"/>
<stop offset="1" stop-color="#EF345C" stop-opacity="0"/>
</linearGradient>
<linearGradient id="paint42_linear" x1="1543.93" y1="376.294" x2="1505.03" y2="400.433" gradientUnits="userSpaceOnUse">
<stop stop-color="#FF4970"/>
<stop offset="1" stop-color="#FC7A99"/>
</linearGradient>
<linearGradient id="paint43_linear" x1="1764" y1="371.5" x2="1874" y2="371.5" gradientUnits="userSpaceOnUse">
<stop stop-color="white"/>
<stop offset="1" stop-color="#D8EDFF"/>
</linearGradient>
</defs>
</svg>
