<svg width="200" height="200" viewBox="0 0 200 200" fill="none" xmlns="http://www.w3.org/2000/svg">
<path d="M100 0C44.7687 0 0 44.7687 0 100C0 155.231 44.7687 200 100 200C155.225 200 200 155.225 200 100C200 44.7687 155.225 0 100 0ZM100 187.5C51.6752 187.5 12.5002 148.325 12.5002 100C12.5002 51.6752 51.6752 12.5002 100 12.5002C148.325 12.5002 187.5 51.6752 187.5 100C187.5 148.325 148.325 187.5 100 187.5Z" fill="#44CEDB"/>
<path d="M145.625 64.9561L81.3248 128.681L54.5684 102.456C52.1059 100.012 48.1061 100.012 45.6436 102.456C43.1748 104.9 43.1748 108.856 45.6436 111.294L76.887 141.912C79.4493 144.169 83.2808 144.418 85.8119 141.912L154.555 73.7937C157.018 71.3561 157.018 67.3937 154.555 64.9561C152.087 62.5185 148.094 62.5185 145.625 64.9561Z" fill="#44CEDB"/>
</svg>
