<svg width="20" height="20" viewBox="0 0 20 20" fill="none" xmlns="http://www.w3.org/2000/svg">
<path d="M10.2154 15.2856C10.7654 15.2856 11.2153 14.8495 11.2153 14.3067C11.2153 13.7638 10.7654 13.3278 10.2154 13.3278C9.66537 13.3278 9.21543 13.7638 9.21543 14.3067C9.21543 14.8495 9.66537 15.2856 10.2154 15.2856Z" fill="#29344C" stroke="#29344C" stroke-width="0.2"/>
<path d="M10.2156 0.9C5.0694 0.9 0.9 4.96783 0.9 10C0.9 15.0315 5.0687 19.1 10.2156 19.1C15.3617 19.1 19.5311 15.0322 19.5311 10C19.5311 4.96851 15.3624 0.9 10.2156 0.9ZM10.2156 17.4937C5.97117 17.4937 2.53993 14.14 2.53993 10C2.53993 5.86059 5.9706 2.50625 10.2156 2.50625C14.4599 2.50625 17.8912 5.86004 17.8912 10C17.8912 14.1394 14.4605 17.4937 10.2156 17.4937Z" fill="#29344C" stroke="#29344C" stroke-width="0.2"/>
<path d="M10.2158 5.41758C8.57486 5.41758 7.23594 6.72182 7.23594 8.33008C7.23594 8.77587 7.60528 9.13321 8.0559 9.13321C8.50652 9.13321 8.87587 8.77587 8.87587 8.33008C8.87587 7.61212 9.4748 7.02383 10.2158 7.02383C10.9568 7.02383 11.5557 7.61212 11.5557 8.33008C11.5557 9.04805 10.9568 9.63634 10.2158 9.63634C9.76518 9.63634 9.39583 9.99368 9.39583 10.4395V12.1973C9.39583 12.6431 9.76518 13.0004 10.2158 13.0004C10.6664 13.0004 11.0358 12.6431 11.0358 12.1973V11.1305C12.28 10.7819 13.1957 9.6599 13.1957 8.33008C13.1957 6.72182 11.8567 5.41758 10.2158 5.41758Z" fill="#29344C" stroke="#29344C" stroke-width="0.2"/>
</svg>
