<svg width="522" height="559" viewBox="0 0 522 559" fill="none" xmlns="http://www.w3.org/2000/svg">
<path d="M310.93 409.558C337.917 385.812 199.541 378.071 222.985 366.262C231.076 352.661 311.944 362.336 333.84 331.978C352.334 306.339 248.868 315.111 259.581 300.383C276.43 277.217 346.601 292.682 364.16 237.86C362.36 215.257 299.983 256.339 311.758 236.232C335.701 215.116 402.598 185.441 391.296 161.048C379.994 136.655 340.1 169.897 305.431 217.963C286.646 232.873 325.061 149.216 302.223 155.454C254.204 168.57 258.946 239.749 238.402 261.62C223.295 277.702 231.356 189.88 205.777 213.808C183.76 234.404 199.03 308.359 186.867 320.52C167.644 339.739 179.566 232.499 159.897 243.21C102.401 274.518 112.255 351.16 123.027 383.93C143.32 413.555 161.459 420.674 186.435 430.478C225.74 436.45 289.378 428.521 310.93 409.558Z" fill="url(#paint0_linear)"/>
<mask id="mask0" mask-type="alpha" maskUnits="userSpaceOnUse" x="114" y="152" width="279" height="281">
<path d="M310.93 409.557C337.917 385.812 199.54 378.071 222.985 366.261C231.076 352.661 311.944 362.336 333.84 331.978C352.333 306.338 248.868 315.111 259.58 300.383C276.43 277.217 346.6 292.682 364.16 237.86C362.359 215.257 299.983 256.338 311.757 236.231C335.701 215.116 402.597 185.441 391.296 161.048C379.994 136.655 340.1 169.897 305.431 217.963C286.646 232.873 325.06 149.216 302.223 155.454C254.204 168.57 258.946 239.749 238.402 261.62C223.295 277.702 231.356 189.88 205.777 213.808C183.76 234.404 199.03 308.359 186.866 320.52C167.643 339.739 179.566 232.498 159.896 243.209C102.4 274.518 112.255 351.159 123.027 383.93C143.32 413.555 161.459 420.674 186.435 430.478C225.74 436.449 289.378 428.521 310.93 409.557Z" fill="#4EAF9D"/>
</mask>
<g mask="url(#mask0)">
<rect x="273.223" y="28.4836" width="173.631" height="368.128" transform="rotate(47.5434 273.223 28.4836)" fill="url(#paint1_radial)" fill-opacity="0.5"/>
</g>
<path opacity="0.3" d="M310.93 409.558C337.917 385.812 199.541 378.071 222.985 366.262C231.076 352.661 311.944 362.336 333.84 331.978C352.334 306.339 248.868 315.111 259.581 300.383C276.43 277.217 346.601 292.682 364.16 237.86C362.36 215.257 299.983 256.339 311.758 236.232C335.701 215.116 402.598 185.441 391.296 161.048C379.994 136.655 340.1 169.897 305.431 217.963C286.646 232.873 325.061 149.216 302.223 155.454C254.204 168.57 258.946 239.749 238.402 261.62C223.295 277.702 231.356 189.88 205.777 213.808C183.76 234.404 199.03 308.359 186.867 320.52C167.644 339.739 179.566 232.499 159.897 243.21C102.401 274.518 112.255 351.16 123.027 383.93C143.32 413.555 161.459 420.674 186.435 430.478C225.74 436.45 289.378 428.521 310.93 409.558Z" fill="#425479"/>
<defs>
<linearGradient id="paint0_linear" x1="206.431" y1="306.798" x2="423.864" y2="442.973" gradientUnits="userSpaceOnUse">
<stop stop-color="#4EAF9D"/>
<stop offset="1" stop-color="#425479"/>
</linearGradient>
<radialGradient id="paint1_radial" cx="0" cy="0" r="1" gradientUnits="userSpaceOnUse" gradientTransform="translate(429.092 219.966) rotate(-174.496) scale(227.1 209.191)">
<stop stop-color="#425479"/>
<stop offset="1" stop-color="#425479" stop-opacity="0"/>
</radialGradient>
</defs>
</svg>
