<svg width="35" height="30" viewBox="0 0 35 30" fill="none" xmlns="http://www.w3.org/2000/svg">
<path d="M0.608601 14.3849L8.54803 17.3481L11.6211 27.231C11.8177 27.864 12.5917 28.0979 13.1055 27.6779L17.531 24.0701C17.9949 23.6921 18.6557 23.6733 19.1405 24.0252L27.1226 29.8204C27.6722 30.2199 28.4508 29.9187 28.5887 29.2546L34.436 1.12781C34.5865 0.402388 33.8737 -0.20278 33.1829 0.0643717L0.599298 12.6342C-0.204799 12.9443 -0.197793 14.0827 0.608601 14.3849ZM11.1258 15.7707L26.6424 6.21403C26.9213 6.04278 27.2082 6.41985 26.9687 6.64198L14.163 18.5455C13.7129 18.9645 13.4226 19.5252 13.3403 20.1338L12.9041 23.3665C12.8463 23.7981 12.24 23.841 12.1209 23.4233L10.4432 17.5283C10.2511 16.856 10.5311 16.1378 11.1258 15.7707Z" fill="#29344C"/>
</svg>
