<svg width="510" height="493" viewBox="0 0 510 493" fill="none" xmlns="http://www.w3.org/2000/svg">
<g filter="url(#filter0_d)">
<rect x="20" y="12" width="470" height="453" rx="40" fill="white"/>
</g>
<rect x="20" y="12" width="470" height="453" rx="40" fill="#9BF6FF" fill-opacity="0.2"/>
<path d="M294.481 208.019C293.134 206.673 291.517 206 289.625 206H220.875C218.984 206 217.366 206.673 216.019 208.019C214.673 209.366 214 210.984 214 212.875V265.125C214 267.016 214.673 268.634 216.019 269.98C217.366 271.327 218.984 272 220.875 272H289.626C291.517 272 293.135 271.327 294.481 269.98C295.827 268.634 296.501 267.016 296.501 265.125V212.875C296.501 210.984 295.827 209.366 294.481 208.019ZM291 265.125C291 265.498 290.865 265.819 290.593 266.092C290.32 266.363 289.998 266.499 289.625 266.499H220.875C220.503 266.499 220.18 266.363 219.908 266.092C219.636 265.819 219.5 265.498 219.5 265.125V212.874C219.5 212.502 219.636 212.18 219.908 211.907C220.181 211.636 220.503 211.5 220.875 211.5H289.626C289.998 211.5 290.321 211.636 290.593 211.907C290.864 212.18 291 212.502 291 212.874V265.125Z" fill="#44CEDB"/>
<path d="M233.251 233.5C235.543 233.5 237.49 232.698 239.095 231.094C240.699 229.489 241.501 227.542 241.501 225.25C241.501 222.958 240.698 221.01 239.095 219.406C237.49 217.802 235.542 217 233.251 217C230.959 217 229.011 217.802 227.407 219.406C225.803 221.01 225.001 222.958 225.001 225.25C225.001 227.542 225.803 229.49 227.407 231.094C229.011 232.697 230.959 233.5 233.251 233.5Z" fill="#44CEDB"/>
<path d="M245.625 245.874L238.75 239L225 252.75V261H285.501V241.75L267.625 223.874L245.625 245.874Z" fill="#44CEDB"/>
<defs>
<filter id="filter0_d" x="0" y="0" width="510" height="493" filterUnits="userSpaceOnUse" color-interpolation-filters="sRGB">
<feFlood flood-opacity="0" result="BackgroundImageFix"/>
<feColorMatrix in="SourceAlpha" type="matrix" values="0 0 0 0 0 0 0 0 0 0 0 0 0 0 0 0 0 0 127 0"/>
<feOffset dy="8"/>
<feGaussianBlur stdDeviation="10"/>
<feColorMatrix type="matrix" values="0 0 0 0 0.647059 0 0 0 0 0.72549 0 0 0 0 0.788235 0 0 0 0.3 0"/>
<feBlend mode="normal" in2="BackgroundImageFix" result="effect1_dropShadow"/>
<feBlend mode="normal" in="SourceGraphic" in2="effect1_dropShadow" result="shape"/>
</filter>
</defs>
</svg>
