<svg width="60" height="60" viewBox="0 0 60 60" fill="none" xmlns="http://www.w3.org/2000/svg">
<path d="M30 60C46.5685 60 60 46.5685 60 30C60 13.4315 46.5685 0 30 0C13.4315 0 0 13.4315 0 30C0 46.5685 13.4315 60 30 60Z" fill="#5343C6"/>
<path d="M42.54 12.8276H17.452C14.8962 12.8276 12.8242 14.8994 12.8242 17.4553V42.5434C12.8242 45.0994 14.8961 47.1711 17.452 47.1711H29.8251L29.8465 34.899H26.6578C26.2435 34.899 25.9071 34.5639 25.9057 34.1495L25.8902 30.1934C25.8885 29.777 26.2261 29.4382 26.6425 29.4382H29.8255V25.6158C29.8255 21.18 32.5347 18.7646 36.4916 18.7646H39.7389C40.1541 18.7646 40.4912 19.1014 40.4912 19.517V22.8525C40.4912 23.268 40.1545 23.6048 39.7394 23.6048L37.7465 23.606C35.5946 23.606 35.1776 24.6285 35.1776 26.1294V29.4387H39.9062C40.3572 29.4387 40.7066 29.8322 40.6533 30.2793L40.1844 34.2354C40.1398 34.6141 39.8186 34.8993 39.4374 34.8993H35.1989L35.1775 47.1718H42.5399C45.0957 47.1718 47.1677 45.0997 47.1677 42.544V17.4553C47.1678 14.8996 45.0958 12.8276 42.54 12.8276Z" fill="white"/>
<path d="M29.824 47.1703L29.8455 34.8982H29.793V47.1703H29.824Z" fill="white"/>
</svg>
