<svg width="60" height="60" viewBox="0 0 60 60" fill="none" xmlns="http://www.w3.org/2000/svg">
<path d="M30 60C46.5685 60 60 46.5685 60 30C60 13.4315 46.5685 0 30 0C13.4315 0 0 13.4315 0 30C0 46.5685 13.4315 60 30 60Z" fill="#44CEDB"/>
<path d="M45.7825 32.6193C45.2374 31.866 44.9852 30.9463 44.9861 30.017C44.9861 30.0115 44.9861 30.0061 44.9861 30.0006C44.9861 21.7216 38.2747 15.0103 29.9961 15.0103C28.1847 15.0103 26.4492 15.3327 24.8424 15.9217C23.9733 16.2404 23.0208 16.3015 22.1296 16.0506C21.3425 15.829 20.5013 15.7352 19.63 15.7955C15.9703 16.0474 13.0241 19.0466 12.8343 22.7102C12.7439 24.4589 13.268 26.0809 14.2096 27.3818C14.754 28.1351 15.0068 29.0548 15.006 29.9847V30.0011C15.006 38.2797 21.7168 44.991 29.9959 44.991C31.8074 44.991 33.5428 44.669 35.1497 44.0796C36.0188 43.7609 36.9713 43.6998 37.8625 43.9507C38.6495 44.1728 39.4908 44.2661 40.3621 44.2063C44.0217 43.9546 46.9679 40.9552 47.1578 37.2918C47.2481 35.5425 46.7241 33.9204 45.7825 32.6193ZM30.5449 27.3128C33.5673 28.0317 38.1346 29.118 38.1346 34.1491C38.1346 36.6273 36.914 38.5182 34.6978 39.4727C33.1164 40.1537 31.3263 40.2457 29.7837 40.2457C25.0434 40.2457 22.0501 36.56 21.9245 36.4031C21.1481 35.4297 21.308 34.0109 22.2817 33.2345C23.2554 32.4581 24.6742 32.618 25.4503 33.5917C25.457 33.5998 27.2475 35.6563 29.7834 35.7366C32.837 35.8331 33.5347 34.9247 33.6251 34.1493C33.7354 33.202 32.8928 32.5069 29.501 31.6999C26.6258 31.0165 22.281 29.983 22.281 25.3497C22.281 23.9066 22.8679 19.1987 30.4194 19.1987C35.1879 19.1987 38.0029 22.9528 38.1204 23.1127C38.8577 24.1161 38.6425 25.5272 37.639 26.2648C36.6402 26.9991 35.2378 26.7892 34.4974 25.7979C34.4443 25.7298 32.8331 23.9371 30.4194 23.708C28.5934 23.5344 26.7904 24.1932 26.7904 25.1659C26.7908 26.1964 27.3086 26.5431 30.5449 27.3128Z" fill="white"/>
<path d="M33.6248 34.1496C33.7255 33.2851 33.0314 32.6306 30.332 31.9095V35.7435C32.9219 35.7197 33.54 34.8763 33.6248 34.1496Z" fill="white"/>
<path d="M26.7969 25.165C26.7969 26.1725 27.2933 26.5266 30.3389 27.2611V23.7013C28.5431 23.5563 26.7969 24.2076 26.7969 25.165Z" fill="white"/>
</svg>
