<svg width="153" height="22" viewBox="0 0 153 22" fill="none" xmlns="http://www.w3.org/2000/svg">
<path d="M5.76 5.49H0.75V0.989998H16.89V5.49H11.76V21H5.76V5.49ZM35.3667 21.75C32.0067 21.75 29.5367 21.13 27.9567 19.89C26.3767 18.63 25.5867 16.61 25.5867 13.83V0.989998H31.8867V13.47C31.8867 14.77 32.1267 15.73 32.6067 16.35C33.1067 16.95 33.9167 17.25 35.0367 17.25C36.0367 17.25 36.8067 16.93 37.3467 16.29C37.9067 15.65 38.1867 14.71 38.1867 13.47V0.989998H43.8867V13.83C43.8867 16.51 43.1167 18.5 41.5767 19.8C40.0367 21.1 37.9667 21.75 35.3667 21.75ZM57.6038 5.49H52.5938V0.989998H68.7338V5.49H63.6038V21H57.6038V5.49ZM86.6405 21.45C83.5405 21.45 81.0805 20.58 79.2605 18.84C77.4405 17.1 76.5305 14.49 76.5305 11.01C76.5305 7.61 77.4105 5.02 79.1705 3.24C80.9505 1.44 83.4405 0.539999 86.6405 0.539999C89.7405 0.539999 92.2005 1.41 94.0205 3.15C95.8405 4.89 96.7505 7.5 96.7505 10.98C96.7505 14.38 95.8605 16.98 94.0805 18.78C92.3205 20.56 89.8405 21.45 86.6405 21.45ZM86.6405 16.65C87.9005 16.65 88.8605 16.22 89.5205 15.36C90.2005 14.48 90.5405 13.01 90.5405 10.95C90.5405 8.91 90.2005 7.47 89.5205 6.63C88.8605 5.77 87.9005 5.34 86.6405 5.34C85.3805 5.34 84.4105 5.78 83.7305 6.66C83.0705 7.52 82.7405 8.98 82.7405 11.04C82.7405 13.08 83.0705 14.53 83.7305 15.39C84.4105 16.23 85.3805 16.65 86.6405 16.65ZM117.305 21L113.855 14.61H111.755V21H105.755V0.989998H116.165C118.605 0.989998 120.505 1.54 121.865 2.64C123.245 3.74 123.935 5.38 123.935 7.56C123.935 8.78 123.595 9.95 122.915 11.07C122.255 12.19 121.305 12.97 120.065 13.41L125.045 21H117.305ZM115.415 10.38C115.995 10.38 116.465 10.18 116.825 9.78C117.205 9.38 117.395 8.73 117.395 7.83C117.395 7.07 117.205 6.49 116.825 6.09C116.445 5.69 115.975 5.49 115.415 5.49H111.755V10.38H115.415Z" fill="#29344C"/>
<path d="M143.83 21.75C140.47 21.75 138 21.13 136.42 19.89C134.84 18.63 134.05 16.61 134.05 13.83V0.989998H140.35V13.47C140.35 14.77 140.59 15.73 141.07 16.35C141.57 16.95 142.38 17.25 143.5 17.25C144.5 17.25 145.27 16.93 145.81 16.29C146.37 15.65 146.65 14.71 146.65 13.47V0.989998H152.35V13.83C152.35 16.51 151.58 18.5 150.04 19.8C148.5 21.1 146.43 21.75 143.83 21.75Z" fill="#279D59"/>
</svg>
