<svg width="60" height="60" viewBox="0 0 60 60" fill="none" xmlns="http://www.w3.org/2000/svg">
<path d="M30 60C46.5685 60 60 46.5685 60 30C60 13.4315 46.5685 0 30 0C13.4315 0 0 13.4315 0 30C0 46.5685 13.4315 60 30 60Z" fill="#279D59"/>
<path d="M29.1566 12.71C20.0126 13.145 12.7968 20.7603 12.8243 29.9144C12.8327 32.7026 13.5059 35.3343 14.6934 37.66L12.8704 46.5093C12.7718 46.9881 13.2035 47.4073 13.6791 47.2945L22.3504 45.2402C24.5782 46.3501 27.0805 46.9909 29.7287 47.0313C39.0748 47.1742 46.8675 39.7534 47.1592 30.4107C47.4711 20.3961 39.2059 12.2313 29.1566 12.71ZM39.5034 39.3689C36.9641 41.9082 33.5875 43.3069 29.996 43.3069C27.8932 43.3069 25.8797 42.835 24.0117 41.9046L22.8045 41.303L17.4877 42.5624L18.6067 37.13L18.012 35.9648C17.0421 34.0657 16.5504 32.0123 16.5504 29.8612C16.5504 26.2697 17.949 22.8934 20.4884 20.3538C23.0051 17.8369 26.4367 16.4159 29.9963 16.4159C33.5873 16.4159 36.964 17.8145 39.5033 20.3538C42.0427 22.8932 43.4413 26.2698 43.4413 29.8609C43.4415 33.4206 42.0203 36.8521 39.5034 39.3689Z" fill="white"/>
<path d="M38.3292 33.5854L35.0029 32.6304C34.5659 32.5051 34.0948 32.6292 33.7762 32.9538L32.9627 33.7824C32.6198 34.132 32.0995 34.2442 31.6455 34.0606C30.072 33.4238 26.7621 30.4807 25.9173 29.0091C25.673 28.5844 25.7135 28.0538 26.013 27.6659L26.7229 26.7472C27.0011 26.3875 27.0597 25.9038 26.8758 25.4878L25.4765 22.3228C25.1414 21.5649 24.1727 21.3441 23.5398 21.8794C22.6115 22.6647 21.5101 23.8575 21.3764 25.1794C21.1402 27.5099 22.1398 30.4474 25.9188 33.9749C30.2848 38.0504 33.7814 38.5885 36.0582 38.0371C37.3495 37.7245 38.3814 36.4709 39.0323 35.4442C39.4765 34.7438 39.1255 33.8142 38.3292 33.5854Z" fill="white"/>
</svg>
